<?xml version="1.0" standalone="no"?>
<!DOCTYPE svg PUBLIC "-//W3C//DTD SVG 20010904//EN"
 "http://www.w3.org/TR/2001/REC-SVG-20010904/DTD/svg10.dtd">
<svg version="1.0" xmlns="http://www.w3.org/2000/svg"
 width="80pt" height="100pt" viewBox="0 0 1860.000000 1542.000000"
 preserveAspectRatio="xMidYMid meet" style="padding-left: 20px">

<g transform="translate(0.000000,1542.000000) scale(0.100000,-0.100000)"
fill="#000000" stroke="none">
<path d="M610 15118 c-53 -6 -80 -25 -80 -55 0 -13 -12 -17 -40 -13 -8 1 -39
18 -68 38 l-52 36 -27 -20 c-43 -32 -48 -47 -28 -78 25 -38 81 -64 209 -96
237 -60 347 -92 418 -121 40 -17 110 -39 156 -50 45 -10 98 -25 117 -33 19 -8
81 -26 138 -40 140 -34 261 -72 305 -94 20 -11 78 -34 127 -51 50 -18 106 -41
125 -52 19 -11 67 -36 107 -54 40 -19 89 -45 110 -59 21 -13 56 -29 78 -35 22
-6 76 -31 120 -56 44 -25 140 -75 213 -110 227 -110 407 -223 532 -334 178
-158 564 -539 613 -604 29 -40 77 -112 107 -162 29 -49 72 -121 95 -160 69
-115 116 -305 131 -527 6 -78 3 -107 -11 -150 -9 -29 -25 -86 -36 -126 -24
-94 -50 -152 -83 -185 -30 -30 -33 -49 -10 -71 42 -43 98 -5 144 99 86 193
108 366 76 603 -26 190 -60 276 -209 537 -22 39 -89 134 -149 212 -89 116
-152 182 -336 356 -315 297 -358 333 -521 440 -133 87 -301 181 -361 202 -24
9 -116 50 -205 92 -88 42 -206 98 -263 125 -56 26 -126 58 -155 69 -28 11 -56
24 -62 29 -18 15 -278 117 -430 168 -82 28 -199 60 -260 72 -60 12 -157 37
-215 55 -58 18 -129 38 -157 45 -125 28 -18 39 197 20 250 -23 718 -105 900
-159 36 -11 205 -54 375 -97 288 -72 684 -180 920 -252 55 -17 186 -56 290
-87 105 -31 226 -74 270 -95 44 -22 94 -42 110 -46 17 -4 102 -38 189 -76 88
-38 187 -80 222 -93 35 -13 116 -51 181 -83 65 -33 129 -63 143 -67 82 -24
622 -306 787 -411 28 -18 64 -36 78 -40 32 -8 281 -168 378 -242 85 -65 131
-89 199 -103 33 -7 96 -37 168 -79 63 -37 183 -105 265 -150 174 -96 357 -224
466 -324 42 -39 114 -98 160 -130 46 -33 107 -80 134 -106 60 -56 197 -168
258 -213 148 -106 195 -144 312 -258 71 -69 192 -178 267 -243 177 -151 211
-191 302 -356 141 -253 149 -280 181 -645 16 -190 14 -220 -24 -297 -25 -50
-32 -56 -121 -100 -101 -52 -151 -93 -180 -148 -20 -39 -53 -167 -71 -275 -20
-115 2 -383 47 -575 28 -123 149 -299 290 -425 69 -61 88 -74 103 -66 34 19
44 40 38 82 -4 34 -19 54 -89 127 -147 154 -209 288 -237 512 -6 42 -20 93
-36 125 l-27 53 31 194 c18 108 40 206 49 222 9 16 54 52 100 80 165 103 211
157 233 280 11 61 11 70 -9 113 -18 41 -22 73 -25 208 -6 193 -23 253 -121
415 -35 58 -72 121 -81 140 -39 77 -152 250 -218 333 -105 130 -540 522 -707
636 -19 13 -71 54 -115 90 -44 37 -134 111 -200 166 -66 54 -140 117 -165 140
-43 40 -161 126 -322 233 -42 29 -155 93 -250 144 -95 50 -191 104 -213 118
-50 34 -168 93 -217 109 -45 15 -171 95 -225 144 -21 19 -55 42 -77 51 -21 9
-68 35 -105 59 -36 24 -99 60 -139 81 -39 20 -111 60 -160 88 -209 123 -803
431 -1047 543 -101 47 -284 115 -445 167 -69 22 -214 68 -323 104 -108 35
-273 84 -365 109 -92 25 -221 61 -287 81 -66 19 -226 62 -355 95 -129 33 -345
89 -480 123 -283 73 -551 129 -730 151 -69 9 -141 20 -160 25 -102 25 -395 49
-480 38z"/>
<path d="M14847 14295 c-38 -19 -80 -43 -95 -54 -136 -95 -532 -304 -603 -317
-48 -9 -76 -25 -166 -93 -80 -60 -427 -274 -568 -351 -97 -53 -188 -110 -410
-259 -93 -63 -215 -144 -270 -181 -176 -118 -398 -344 -608 -622 -64 -84 -130
-170 -146 -191 -16 -20 -70 -104 -120 -185 -64 -104 -101 -154 -127 -172 -26
-17 -79 -89 -179 -240 -219 -332 -272 -426 -289 -506 -22 -102 -31 -120 -91
-183 -47 -50 -58 -68 -74 -130 -10 -39 -15 -73 -11 -76 15 -9 79 77 101 134
32 87 122 260 189 363 169 261 307 454 386 538 43 45 84 101 103 140 18 36 41
74 52 86 10 11 19 27 19 35 0 8 19 40 43 71 23 31 69 96 102 144 33 48 78 108
101 133 22 25 61 73 86 106 60 79 255 296 326 363 31 30 80 65 109 78 28 14
82 53 120 88 64 59 354 261 433 301 19 10 53 30 75 45 64 43 277 168 308 179
15 6 27 7 27 1 0 -18 -208 -175 -495 -372 -160 -111 -336 -247 -480 -373 -173
-150 -407 -399 -489 -518 -124 -180 -146 -213 -146 -221 0 -6 -11 -21 -24 -35
-13 -15 -65 -93 -115 -175 -74 -122 -93 -163 -107 -223 -16 -75 -38 -113 -117
-207 -21 -25 -67 -100 -101 -168 -125 -245 -269 -514 -302 -564 -19 -28 -34
-54 -34 -58 0 -17 -103 -243 -120 -261 -9 -11 -23 -30 -29 -42 -6 -13 -21 -23
-31 -23 -15 0 -20 -7 -20 -29 0 -43 -130 -200 -233 -282 -59 -47 -116 -53
-161 -18 -23 18 -31 20 -49 10 -33 -18 -64 -68 -91 -151 -13 -41 -41 -110 -60
-153 -20 -43 -36 -92 -36 -108 0 -38 41 -82 73 -77 19 3 23 11 28 59 7 68 67
186 125 246 36 38 46 43 85 43 68 0 134 39 245 144 54 51 109 98 121 104 15 8
20 18 16 32 -4 13 8 40 33 78 21 31 73 127 117 212 43 85 85 162 92 170 8 9
111 208 228 442 118 234 229 444 248 466 19 22 40 57 48 79 21 62 179 342 236
418 28 39 62 87 75 109 13 21 40 58 62 83 21 24 38 48 38 53 0 13 61 104 113
170 73 91 296 313 398 397 85 69 176 138 420 318 37 28 116 85 176 127 199
141 227 163 303 227 43 36 106 78 147 97 40 18 87 44 105 57 18 14 60 36 93
50 33 14 87 40 120 59 33 19 75 40 93 47 18 8 37 22 43 32 5 11 24 25 42 33
39 16 389 228 435 262 17 14 32 29 32 35 0 12 -52 12 -86 -1 -18 -7 -31 -7
-37 -1 -13 13 97 84 163 106 52 17 105 59 95 75 -10 17 -37 11 -108 -25z
m-207 -205 c-33 -25 -278 -168 -460 -267 -80 -44 -189 -108 -243 -142 -111
-71 -160 -93 -190 -89 -15 2 16 27 113 87 244 152 264 164 410 234 80 39 163
81 185 95 120 76 253 135 185 82z"/>
<path d="M4590 13669 c0 -14 10 -24 33 -32 87 -31 640 -326 777 -416 69 -44
187 -120 263 -168 179 -113 365 -233 552 -355 55 -35 131 -82 170 -102 38 -21
106 -64 150 -96 44 -33 100 -68 125 -79 46 -21 120 -28 120 -12 0 10 -257 209
-345 267 -33 22 -77 47 -99 57 -21 10 -154 89 -295 176 -890 549 -886 546
-1146 660 -88 38 -186 81 -218 95 -70 32 -87 32 -87 5z"/>
<path d="M11542 12588 c-259 -187 -340 -254 -503 -420 -154 -157 -194 -204
-340 -401 -108 -145 -143 -202 -223 -363 -53 -105 -109 -229 -126 -275 -54
-146 -107 -310 -135 -419 -15 -58 -33 -114 -40 -125 -7 -11 -14 -61 -17 -110
-4 -77 -9 -98 -35 -145 -17 -30 -34 -66 -38 -80 -4 -14 -34 -79 -67 -145 -43
-86 -60 -132 -60 -160 0 -45 23 -68 62 -63 22 3 26 10 37 68 6 36 21 89 32
118 12 29 30 76 42 105 11 28 39 85 61 126 27 48 47 103 58 155 20 96 71 269
146 494 69 207 230 541 338 702 213 315 671 790 761 790 12 0 42 -7 65 -15
110 -39 251 -23 393 42 77 36 147 97 147 128 0 22 -19 19 -86 -14 -66 -33
-165 -57 -269 -66 -84 -7 -113 5 -129 55 -14 43 -33 47 -74 18z m278 -128 c0
-5 -2 -10 -4 -10 -3 0 -8 5 -11 10 -3 6 -1 10 4 10 6 0 11 -4 11 -10z"/>
<path d="M6871 12340 c56 -29 114 -102 134 -167 17 -53 32 -71 234 -273 150
-148 254 -262 336 -368 95 -121 131 -159 172 -183 56 -32 85 -65 157 -177 39
-59 51 -72 67 -67 21 7 25 -5 9 -21 -7 -7 -2 -29 16 -68 14 -32 30 -85 34
-119 4 -34 11 -75 15 -90 6 -22 3 -33 -13 -48 -12 -10 -23 -34 -26 -51 -30
-191 -30 -179 -7 -201 20 -20 22 -20 55 -4 56 26 65 50 71 175 11 223 -47 388
-228 647 -66 96 -92 125 -128 143 -59 32 -80 52 -229 227 -70 83 -204 225
-299 315 -94 91 -185 186 -201 213 -17 26 -35 47 -42 47 -7 0 -31 20 -54 45
-33 37 -47 45 -75 45 l-34 -1 36 -19z"/>
<path d="M15897 12161 c-49 -4 -83 -13 -93 -23 -11 -10 -21 -53 -29 -124 -8
-60 -18 -124 -24 -143 -6 -19 -15 -82 -22 -140 -12 -121 -51 -292 -74 -324 -9
-13 -15 -43 -15 -75 0 -46 -15 -104 -65 -257 -8 -22 -27 -72 -43 -111 -16 -38
-33 -86 -37 -105 -4 -18 -22 -68 -41 -109 -18 -41 -55 -140 -82 -220 -27 -80
-61 -173 -76 -207 -14 -34 -41 -124 -60 -200 -34 -138 -69 -248 -131 -418 -18
-49 -35 -99 -38 -110 -13 -49 -123 -285 -156 -335 -20 -30 -41 -64 -47 -75
-18 -32 -87 -46 -284 -56 -102 -5 -257 -16 -345 -24 -88 -9 -254 -15 -370 -15
-225 0 -349 -18 -405 -59 -14 -10 -37 -22 -50 -26 -37 -11 -70 -45 -70 -71 0
-16 18 -38 58 -71 102 -85 184 -133 245 -143 62 -10 115 -34 124 -56 3 -8 -6
-29 -19 -47 -57 -74 -95 -182 -82 -233 8 -30 69 -74 104 -74 34 0 70 26 70 51
0 10 -5 19 -10 19 -23 0 -60 50 -60 79 0 31 81 171 99 171 12 0 21 -25 21 -58
0 -105 87 -200 184 -204 75 -3 74 31 -4 118 -64 70 -76 104 -37 104 36 0 382
-32 386 -36 9 -8 -10 -15 -117 -42 -138 -35 -187 -73 -131 -102 15 -9 39 -7
97 5 211 43 432 126 526 197 28 21 62 41 76 45 41 10 60 33 60 74 0 44 -4 43
175 59 189 17 196 15 112 -43 -29 -20 -74 -57 -100 -82 l-47 -45 0 -74 c0 -80
12 -103 49 -91 13 4 25 21 32 48 22 84 22 84 121 115 51 17 96 28 100 26 5 -3
8 -13 8 -24 0 -30 30 -33 71 -5 21 14 48 25 59 25 12 0 43 -21 70 -46 50 -47
74 -53 94 -21 9 13 6 27 -13 62 -37 70 -77 98 -190 135 -55 17 -101 34 -101
37 0 14 266 -12 450 -43 172 -30 314 -44 437 -44 20 0 23 -5 23 -35 0 -33 5
-39 73 -82 39 -26 77 -53 82 -60 6 -8 30 -20 55 -27 44 -13 50 -22 35 -57 -4
-12 4 -25 30 -45 34 -26 39 -27 85 -16 38 9 70 8 147 -4 54 -8 132 -19 173
-25 70 -10 128 -28 90 -29 -8 0 -109 9 -224 20 -116 10 -214 17 -218 14 -14
-9 -8 -43 10 -53 14 -9 12 -10 -14 -11 -35 0 -120 27 -182 59 -72 37 -122 25
-122 -29 0 -64 127 -117 310 -131 69 -5 135 -16 165 -27 28 -11 55 -17 62 -15
6 2 19 -8 29 -22 21 -32 83 -65 121 -65 15 0 67 12 115 26 l88 25 52 -29 c87
-50 118 -54 178 -26 61 28 66 55 10 64 -19 4 -46 12 -60 19 -35 19 -110 81
-110 91 0 4 82 10 183 12 260 6 269 12 198 162 -45 98 -65 118 -136 141 -29 9
-80 32 -112 52 -68 41 -208 96 -343 133 -52 15 -250 76 -440 135 -190 59 -353
110 -363 113 -15 4 -17 10 -12 31 9 31 12 85 25 433 10 260 34 501 64 643 8
39 29 180 46 315 39 308 45 348 70 495 11 66 27 165 35 220 20 134 40 238 58
307 9 32 21 113 28 180 6 68 15 133 20 145 4 11 11 48 14 80 7 55 5 64 -25
116 -41 73 -99 122 -164 141 -186 53 -353 72 -509 57z m213 -111 c0 -5 -2 -10
-4 -10 -3 0 -8 5 -11 10 -3 6 -1 10 4 10 6 0 11 -4 11 -10z m-218 -52 c-7 -7
-12 -20 -12 -30 0 -19 -7 -16 -59 18 -13 9 16 24 47 24 28 0 33 -3 24 -12z
m461 -3 c26 -11 21 -23 -19 -40 -37 -15 -37 -15 -31 -64 6 -48 5 -49 -24 -55
-38 -7 -37 -27 6 -74 38 -43 37 -52 -7 -52 -32 0 -47 -23 -31 -49 5 -9 28 -25
50 -36 87 -43 91 -65 12 -65 -53 0 -89 -13 -89 -32 0 -7 15 -27 33 -46 l32
-35 -53 7 c-52 7 -82 -3 -82 -25 0 -4 29 -29 65 -54 36 -26 65 -51 65 -57 0
-7 -26 -8 -76 -3 -74 7 -77 6 -98 -19 -16 -19 -27 -24 -43 -20 -22 6 -33 34
-13 34 16 0 87 69 93 89 3 14 -7 29 -34 51 -53 43 -52 67 6 81 52 13 56 27 20
75 -22 29 -24 36 -13 60 11 23 10 28 -11 45 -13 11 -36 19 -52 19 -16 0 -29 5
-29 10 0 6 24 10 53 10 72 0 91 15 76 58 -9 25 -8 36 2 48 11 14 17 50 21 128
l1 29 76 -6 c42 -3 84 -8 94 -12z m92 -136 c4 -6 5 -12 2 -15 -7 -7 -37 7 -37
17 0 13 27 11 35 -2z m-570 -139 c-5 -8 -11 -8 -17 -2 -6 6 -7 16 -3 22 5 8
11 8 17 2 6 -6 7 -16 3 -22z m113 -9 c3 -8 -1 -12 -9 -9 -7 2 -15 10 -17 17
-3 8 1 12 9 9 7 -2 15 -10 17 -17z m-133 -201 c-28 -12 -55 -12 -55 0 0 6 17
10 38 9 30 0 33 -2 17 -9z m565 -164 c0 -8 -6 -16 -12 -19 -18 -6 -50 12 -43
24 10 15 55 11 55 -5z m-221 -123 c28 -21 51 -41 51 -45 0 -4 -21 -10 -47 -13
-133 -17 -85 -71 67 -75 30 -1 64 -5 75 -9 18 -7 17 -10 -15 -30 -29 -18 -48
-21 -112 -19 -68 2 -80 0 -99 -18 -17 -18 -19 -25 -10 -43 6 -11 23 -24 36
-27 38 -10 50 -30 25 -44 -16 -8 -30 -8 -55 0 -41 13 -75 0 -75 -30 0 -10 21
-36 47 -57 l46 -38 -59 -5 c-77 -7 -79 -22 -14 -93 70 -77 65 -91 -21 -65 -31
9 -51 8 -95 -2 -37 -9 -64 -10 -81 -4 -32 11 -42 34 -15 34 29 0 101 56 108
84 4 15 -1 36 -12 55 -17 29 -17 30 9 65 34 44 34 58 -3 89 -36 31 -37 35 -9
46 22 8 68 114 69 158 0 15 12 27 44 43 28 13 50 32 58 51 7 16 18 29 24 29 6
0 34 -17 63 -37z m186 -13 c0 -8 -7 -16 -15 -17 -22 -4 -44 13 -35 26 10 17
50 9 50 -9z m-617 -42 c-7 -22 -58 -42 -71 -28 -9 8 -7 15 7 26 25 18 69 19
64 2z m532 -28 c0 -5 -4 -10 -10 -10 -5 0 -10 5 -10 10 0 6 5 10 10 10 6 0 10
-4 10 -10z m-605 -110 c-3 -5 -15 -10 -26 -10 -10 0 -19 5 -19 10 0 6 12 10
26 10 14 0 23 -4 19 -10z m642 -102 c17 -14 16 -38 -1 -38 -17 0 -66 38 -66
52 0 12 48 2 67 -14z m-660 -103 c52 -22 29 -45 -44 -45 -57 0 -77 16 -53 45
16 19 51 19 97 0z m653 -44 c0 -16 -3 -36 -6 -44 -5 -14 -8 -13 -22 1 -10 9
-29 25 -42 34 -21 15 -23 19 -10 27 8 6 30 11 48 11 29 0 32 -3 32 -29z m-29
-190 c-21 -102 -61 -395 -61 -446 0 -27 -6 -87 -14 -131 -19 -106 -44 -368
-55 -568 -10 -176 -17 -195 -68 -175 -13 5 -39 9 -57 9 -40 0 -62 16 -70 53
-6 26 -5 27 32 27 45 0 78 20 69 43 -3 9 -28 26 -54 39 -26 13 -48 28 -48 33
0 6 20 12 44 15 25 3 46 11 49 18 2 7 -12 28 -32 46 -34 33 -34 34 -13 40 12
3 36 6 54 6 23 0 33 6 38 20 9 27 -9 48 -57 67 -21 8 -38 19 -38 23 0 5 19 11
43 15 56 10 77 22 77 44 0 19 -53 71 -71 71 -6 0 -7 5 -4 10 3 6 19 10 35 10
28 0 60 22 60 41 0 18 -49 59 -70 59 -12 0 -18 5 -15 10 3 6 21 10 38 10 59 0
100 47 60 69 -23 12 -278 34 -308 27 -41 -11 -37 -33 15 -77 28 -23 50 -45 50
-49 0 -4 -23 -10 -51 -12 -88 -9 -92 -40 -10 -85 28 -16 51 -32 51 -36 0 -4
-22 -5 -48 -1 -37 5 -51 2 -61 -9 -17 -22 -5 -41 52 -77 27 -17 45 -35 42 -40
-3 -6 -28 -10 -54 -10 -86 0 -87 -30 -4 -81 l37 -23 -67 -11 c-36 -6 -69 -14
-73 -18 -10 -10 25 -46 65 -67 l34 -17 -62 -6 c-58 -5 -91 -19 -91 -38 0 -5
24 -23 53 -40 l52 -30 -60 6 c-59 6 -125 22 -125 31 0 2 14 17 32 32 26 24 32
38 36 84 4 51 2 56 -28 81 -17 15 -42 27 -55 27 -13 0 -26 4 -29 9 -6 10 40
21 88 21 77 0 91 20 57 76 -18 29 -18 31 1 54 16 20 19 34 14 69 -5 37 -2 51
18 80 22 31 24 41 16 76 -5 22 -10 62 -10 88 0 47 1 49 43 67 79 35 97 77 42
102 -18 8 -24 16 -19 27 3 9 7 28 9 43 1 16 9 36 18 46 21 23 22 56 1 87 -20
31 -12 55 19 55 13 0 38 11 56 25 32 23 35 23 65 8 48 -25 96 -64 90 -74 -3
-5 -32 -9 -65 -9 -55 0 -59 -2 -59 -23 0 -14 18 -40 45 -67 63 -62 60 -69 -32
-67 -102 3 -108 -14 -26 -75 l58 -43 -62 -3 c-55 -3 -63 -5 -63 -23 0 -32 61
-51 175 -57 85 -4 103 -2 114 12 12 14 11 19 -5 37 -10 12 -31 27 -46 35 -41
21 -34 31 27 37 66 7 75 12 75 41 0 26 -19 46 -67 70 -45 23 -41 36 10 36 48
0 87 22 87 49 0 19 -45 71 -61 71 -22 0 -6 17 26 29 29 10 35 17 35 40 0 16
-9 40 -20 54 -25 31 -25 47 -2 48 9 0 33 6 52 12 32 11 35 10 38 -7 2 -11 -1
-45 -7 -75z m-781 9 c0 -5 -5 -10 -11 -10 -5 0 -7 5 -4 10 3 6 8 10 11 10 2 0
4 -4 4 -10z m0 -130 c0 -5 -9 -10 -20 -10 -11 0 -20 5 -20 10 0 6 9 10 20 10
11 0 20 -4 20 -10z m-1 -101 c17 -6 31 -17 31 -25 0 -11 -17 -14 -69 -14 -74
0 -98 13 -66 37 23 16 61 17 104 2z m-7 -135 l33 -17 -80 -18 c-44 -10 -86
-18 -92 -18 -16 -1 -17 33 -2 61 10 18 18 20 59 15 27 -3 64 -14 82 -23z
m-127 -128 c19 -14 19 -15 -7 -26 -15 -7 -34 -10 -44 -6 -16 6 -16 8 1 26 22
24 25 24 50 6z m210 -96 c3 -6 -5 -10 -19 -10 -14 0 -28 5 -31 10 -3 6 5 10
19 10 14 0 28 -4 31 -10z m-225 -30 c11 -7 4 -10 -27 -10 -24 0 -43 5 -43 10
0 13 50 13 70 0z m-21 -95 c9 -10 -9 -18 -54 -22 -47 -6 -49 -5 -39 22 6 14
15 16 48 11 22 -4 42 -9 45 -11z m85 -63 c2 -4 -6 -9 -20 -10 -13 -1 -24 3
-24 8 0 12 37 14 44 2z m-117 -63 c46 -8 66 -17 74 -31 9 -18 8 -19 -11 -13
-11 4 -52 1 -91 -6 -79 -14 -96 -7 -85 35 7 30 19 31 113 15z m-38 -140 c69
-10 82 -23 39 -38 -39 -14 -178 -27 -178 -17 0 15 30 64 42 69 7 3 20 3 28 0
8 -3 39 -9 69 -14z m-86 -131 c31 -16 18 -26 -25 -21 -48 6 -64 16 -54 32 7
11 46 6 79 -11z m-54 -97 c11 -7 4 -12 -25 -20 -26 -7 -42 -7 -49 0 -21 21 44
39 74 20z m325 -104 c-1 -4 -5 -40 -9 -80 -8 -80 -19 -104 -41 -86 -17 14 -18
88 -3 142 8 31 14 38 32 35 12 -2 21 -6 21 -11z m103 -54 c-7 -74 -18 -93 -41
-74 -11 9 -14 26 -10 64 8 71 10 77 35 77 21 0 22 -3 16 -67z m-335 10 c-6
-21 -14 -51 -17 -67 -5 -22 -9 -26 -18 -17 -12 12 5 94 25 118 18 22 22 6 10
-34z m115 15 c-3 -18 -9 -54 -13 -80 -8 -62 -29 -81 -45 -42 -23 60 7 154 49
154 11 0 13 -8 9 -32z m-303 5 c7 -25 -10 -94 -26 -104 -21 -14 -68 -10 -74 5
-6 17 64 116 82 116 7 0 15 -8 18 -17z m626 10 c0 -26 -33 -189 -39 -196 -4
-4 -13 -1 -20 7 -9 11 -7 31 10 92 12 44 23 85 25 92 4 13 24 17 24 5z m110
-30 c0 -52 -21 -158 -34 -171 -7 -7 -20 -10 -31 -6 -15 6 -17 16 -12 73 8 94
23 131 53 131 20 0 24 -5 24 -27z m-641 -35 c-11 -48 -16 -58 -30 -58 -13 0
-2 79 13 97 18 23 26 4 17 -39z m751 -3 c0 -105 -33 -178 -70 -155 -22 13 3
169 31 192 29 24 39 15 39 -37z m100 -25 c0 -45 -20 -128 -34 -139 -7 -6 -17
-6 -26 -1 -12 7 -12 16 -2 55 7 25 12 53 12 63 0 23 29 64 41 57 5 -4 9 -19 9
-35z m97 -60 c-8 -68 -21 -100 -42 -100 -19 0 -31 48 -16 63 6 6 11 19 11 28
0 32 19 69 36 69 15 0 16 -8 11 -60z m-537 -4 c0 -3 -4 -8 -10 -11 -5 -3 -10
-1 -10 4 0 6 5 11 10 11 6 0 10 -2 10 -4z m-312 -76 c133 -10 586 -64 622 -75
8 -3 93 -16 189 -29 95 -14 176 -28 179 -31 16 -16 -24 -18 -166 -6 -86 7
-202 21 -257 31 -63 12 -177 21 -305 25 -113 3 -272 13 -355 21 -311 31 -463
43 -547 44 -103 0 -146 12 -78 21 78 10 565 9 718 -1z m-1158 -50 c7 -12 66
-16 327 -21 292 -7 558 -27 783 -59 36 -5 86 -10 113 -10 26 0 47 -4 47 -10 0
-9 -84 -15 -195 -14 -54 1 -478 30 -695 49 -96 8 -321 19 -499 25 -312 9 -394
19 -299 35 150 26 403 29 418 5z m177 14 c-3 -3 -12 -4 -19 -1 -8 3 -5 6 6 6
11 1 17 -2 13 -5z m363 -143 c284 -23 260 -20 235 -31 -27 -12 -484 -12 -565
0 -141 20 -468 34 -525 23 -47 -10 -64 -9 -122 7 -61 18 -68 18 -84 4 -14 -12
-22 -13 -38 -4 -57 30 -21 33 417 27 305 -4 511 -12 682 -26z m1408 -27 c27
-6 29 -21 2 -29 -25 -8 -121 11 -145 28 -14 11 -5 12 52 10 37 -2 78 -6 91 -9z
m327 -28 c72 -8 170 -22 219 -30 49 -9 93 -16 97 -16 5 0 9 -5 9 -11 0 -13
-36 -10 -245 20 -148 21 -223 35 -232 45 -9 8 4 8 152 -8z m-2445 -25 c0 -11
-104 -35 -123 -28 -6 2 11 11 38 19 60 19 85 21 85 9z m499 -17 c115 -10 224
-12 320 -8 147 7 167 1 91 -26 -56 -20 -457 -24 -633 -7 -81 8 -151 18 -155
22 -4 4 4 16 17 26 27 22 5 23 360 -7z m871 -54 c0 -5 -2 -10 -4 -10 -3 0 -8
5 -11 10 -3 6 -1 10 4 10 6 0 11 -4 11 -10z m-1168 -30 c40 -5 167 -16 281
-24 114 -7 211 -16 214 -20 16 -16 -20 -21 -162 -24 -162 -4 -406 18 -430 38
-16 13 -9 40 10 40 8 0 47 -4 87 -10z m2963 -27 c52 -15 95 -30 95 -35 0 -27
-111 -21 -330 16 -131 23 -133 24 -70 25 36 1 83 6 105 10 68 15 102 12 200
-16z m-235 -84 c115 -25 299 -42 357 -33 33 5 43 11 43 25 0 30 14 29 67 -1
63 -36 72 -49 47 -67 -23 -17 -74 -13 -309 23 -154 24 -356 63 -364 70 -12 11
76 2 159 -17z m-47 -74 c34 -8 111 -23 172 -35 107 -21 123 -25 114 -34 -7 -7
-291 30 -386 50 -13 2 -23 11 -23 19 0 19 42 19 123 0z m700 -52 c4 -3 0 -15
-10 -25 -14 -16 -31 -18 -127 -16 -109 1 -110 1 -36 8 41 3 89 14 105 23 32
17 57 21 68 10z m-310 -18 c42 -9 22 -28 -22 -20 -20 4 -39 9 -44 12 -13 8 2
21 21 18 9 -2 30 -6 45 -10z m-13 -163 c25 -4 44 -11 44 -17 -3 -15 -112 -67
-152 -72 -38 -5 -84 19 -157 82 l-30 26 125 -6 c69 -4 145 -10 170 -13z"/>
<path d="M4175 11824 c-20 -6 -45 -31 -45 -46 0 -4 10 -16 22 -28 20 -19 34
-20 207 -20 102 0 220 -4 261 -10 41 -5 134 -17 205 -26 140 -17 486 -82 600
-113 39 -10 140 -39 225 -64 85 -25 209 -57 275 -71 285 -60 433 -99 635 -164
232 -76 317 -109 359 -139 14 -11 77 -46 140 -78 63 -32 128 -70 145 -85 17
-14 45 -34 61 -45 55 -34 219 -167 283 -229 77 -74 143 -164 178 -242 33 -72
60 -104 91 -104 35 0 30 41 -17 123 -146 252 -381 474 -694 653 -37 21 -89 51
-115 66 -198 113 -396 184 -781 280 -1021 254 -1035 257 -1375 303 -204 28
-315 37 -455 40 -102 2 -194 2 -205 -1z"/>
<path d="M4110 11601 c-5 -11 -10 -25 -10 -31 0 -7 40 -53 88 -103 134 -139
158 -180 206 -354 39 -142 49 -228 44 -390 -6 -157 -47 -389 -88 -494 -24 -60
-25 -85 -4 -93 65 -25 117 96 184 424 39 195 44 258 30 370 -14 119 -46 279
-67 345 -33 105 -168 264 -265 313 -74 37 -103 40 -118 13z"/>
<path d="M10192 11124 c-116 -99 -476 -710 -613 -1039 -68 -165 -81 -213 -74
-272 5 -44 3 -55 -14 -72 -12 -12 -21 -27 -21 -34 0 -22 34 -47 63 -47 41 0
54 32 61 150 5 90 11 119 45 205 50 129 191 423 240 500 21 33 59 98 85 145
26 47 72 121 101 165 29 44 72 112 96 150 24 39 56 85 71 103 31 36 35 54 15
71 -11 8 -23 3 -55 -25z"/>
<path d="M6908 10226 c-13 -5 -252 -13 -553 -17 -296 -4 -570 -12 -620 -18
-138 -18 -378 -60 -474 -82 -48 -12 -155 -25 -241 -30 -85 -6 -198 -19 -250
-29 -126 -26 -308 -84 -351 -113 -44 -29 -51 -64 -14 -73 30 -7 36 -6 190 38
159 47 464 104 660 123 33 4 98 13 145 20 236 38 395 47 1000 55 435 6 618 12
653 21 41 11 55 10 105 -5 74 -23 251 -108 288 -138 16 -14 51 -37 77 -52 58
-33 184 -158 212 -209 15 -29 26 -37 47 -37 62 0 48 46 -44 151 -141 160 -402
330 -576 374 -83 21 -226 33 -254 21z"/>
<path d="M5257 9896 c-72 -30 -89 -44 -85 -70 4 -27 37 -32 105 -15 67 16 239
-6 458 -57 176 -41 200 -51 331 -136 221 -143 256 -175 420 -382 62 -79 62
-83 -24 -117 -86 -34 -151 -67 -214 -110 -32 -22 -60 -39 -62 -39 -2 0 -9 13
-14 29 -9 25 -5 39 26 101 34 68 35 73 18 86 -33 24 -117 -27 -217 -133 -56
-59 -146 -212 -154 -261 -2 -15 -7 -43 -10 -64 -5 -32 -13 -41 -77 -78 -104
-62 -289 -205 -401 -310 -54 -50 -102 -89 -105 -85 -4 4 -10 49 -13 100 -5 73
-12 106 -32 147 -15 29 -28 66 -29 82 -4 43 -22 42 -73 -5 -89 -82 -195 -268
-195 -342 0 -82 74 -134 154 -107 37 12 80 56 70 71 -3 5 -28 9 -56 9 -79 0
-96 37 -58 125 27 62 58 105 76 105 20 0 44 -60 44 -108 0 -26 9 -50 29 -78
16 -21 31 -50 32 -64 3 -15 15 -30 32 -38 43 -21 76 -2 163 94 83 91 214 207
290 257 96 63 190 115 227 127 21 6 45 23 54 37 17 25 16 26 -11 48 -26 20
-28 27 -22 61 10 50 58 144 97 189 l31 35 47 -50 c25 -27 52 -57 59 -65 24
-29 67 -18 121 31 37 33 81 58 159 90 59 24 112 44 118 44 7 0 14 -33 18 -81
4 -45 11 -90 16 -100 7 -12 6 -27 -1 -46 -16 -41 -23 -213 -10 -245 11 -29 41
-37 69 -19 29 18 49 297 34 474 -9 106 -14 126 -49 200 -82 169 -222 322 -411
448 -178 119 -244 146 -522 210 -105 24 -146 29 -260 29 -119 0 -142 -3 -193
-24z"/>
<path d="M9093 9906 c-84 -21 -238 -126 -290 -198 -38 -55 -73 -148 -73 -197
0 -32 6 -44 31 -66 59 -49 106 -16 75 53 l-18 41 49 92 c36 67 60 100 91 122
23 17 45 28 48 24 4 -3 -3 -30 -16 -58 -27 -64 -25 -172 4 -232 32 -66 139
-122 163 -85 4 7 13 31 18 53 8 28 19 44 38 53 28 14 151 18 210 7 28 -6 39
-3 56 14 28 28 27 37 -12 76 -41 41 -90 52 -172 36 -85 -15 -202 -15 -208 2
-2 6 1 34 8 61 11 41 24 60 74 107 102 94 73 131 -76 95z m7 -456 c0 -5 -2
-10 -4 -10 -3 0 -8 5 -11 10 -3 6 -1 10 4 10 6 0 11 -4 11 -10z"/>
<path d="M9947 9806 c-113 -58 -248 -148 -266 -178 -35 -55 -51 -100 -51 -136
0 -44 18 -65 51 -60 25 3 32 15 48 73 19 73 66 129 161 195 50 33 115 72 145
85 57 26 63 33 43 53 -19 19 -39 14 -131 -32z"/>
<path d="M9984 9721 c-50 -38 -110 -116 -129 -171 -8 -23 -15 -69 -15 -102 0
-57 2 -63 39 -99 46 -47 96 -54 110 -17 9 24 -4 97 -20 113 -32 32 11 184 67
237 67 63 25 95 -52 39z"/>
<path d="M8426 9634 c-113 -50 -136 -67 -136 -101 0 -41 24 -41 147 4 44 16
61 18 101 10 62 -13 100 -3 115 30 10 23 9 28 -12 42 -13 9 -34 26 -48 39 -32
30 -52 27 -167 -24z"/>
<path d="M10935 9651 c-149 -43 -226 -96 -303 -206 -30 -44 -57 -82 -58 -84
-2 -2 -27 18 -56 43 -29 26 -75 58 -102 71 -47 23 -60 25 -202 25 -138 0 -154
-2 -178 -21 -26 -20 -34 -53 -17 -63 5 -3 71 -13 146 -21 112 -13 153 -22 221
-50 93 -39 121 -42 150 -20 24 18 34 19 34 2 0 -22 34 -47 63 -47 32 0 57 33
57 76 0 58 127 194 199 214 44 12 61 13 61 2 0 -4 -25 -51 -56 -103 -108 -181
-123 -232 -83 -283 62 -79 160 -64 128 21 -19 51 -11 118 23 179 17 33 44 83
58 112 15 28 36 62 48 75 24 26 41 67 35 85 -7 17 -96 14 -168 -7z"/>
<path d="M9228 9380 c-47 -25 -96 -85 -104 -128 -13 -67 55 -173 100 -156 18
7 22 34 6 34 -6 0 -18 16 -27 35 -13 27 -14 40 -5 57 6 13 13 32 16 44 9 32
80 66 150 71 64 6 199 -17 271 -45 22 -8 60 -29 83 -45 32 -21 47 -26 55 -18
28 28 -125 125 -248 156 -88 22 -250 19 -297 -5z"/>
<path d="M11867 9356 c-120 -53 -225 -116 -284 -171 -48 -46 -53 -55 -53 -94
0 -42 13 -80 34 -93 17 -12 74 -9 82 3 3 6 -2 28 -11 49 -17 37 -17 39 4 68
37 52 162 125 269 157 33 10 28 -10 -15 -60 -70 -80 -115 -222 -99 -308 6 -34
46 -87 64 -87 6 0 20 8 33 19 20 16 24 33 35 143 12 125 20 152 76 253 13 23
31 52 41 65 20 28 22 61 5 78 -23 23 -99 13 -181 -22z"/>
<path d="M8563 9239 c-88 -53 -106 -79 -77 -110 22 -24 36 -24 60 2 26 29 99
70 159 91 81 27 72 68 -15 68 -36 -1 -61 -10 -127 -51z"/>
<path d="M11024 9231 c-41 -25 -50 -40 -33 -56 15 -14 25 -18 212 -86 64 -24
117 -47 117 -52 0 -5 -10 -6 -22 -3 -48 14 -257 28 -309 22 -62 -8 -119 -38
-119 -62 0 -18 161 -198 192 -215 52 -28 31 23 -46 109 -31 34 -56 67 -56 72
0 20 48 34 115 34 90 -1 267 -31 324 -55 24 -10 50 -19 57 -19 22 0 16 24 -11
50 l-24 23 24 29 c40 48 32 79 -29 110 -72 37 -300 118 -331 118 -16 0 -44 -9
-61 -19z"/>
<path d="M7240 9221 c0 -20 17 -37 27 -28 7 8 -7 47 -18 47 -5 0 -9 -9 -9 -19z"/>
<path d="M10231 9160 c-68 -16 -111 -69 -98 -121 8 -32 99 -142 132 -159 50
-27 47 3 -10 78 -30 41 -55 77 -55 81 0 4 14 18 31 30 31 23 33 23 153 11 66
-6 141 -14 166 -17 42 -5 43 -4 30 12 -8 10 -51 35 -94 57 -71 34 -88 38 -150
37 -39 -1 -86 -5 -105 -9z"/>
<path d="M9531 9028 c-33 -19 -64 -47 -79 -72 l-26 -41 -135 0 c-122 0 -143
-3 -202 -26 -101 -40 -159 -71 -180 -97 -17 -22 -17 -27 -4 -52 16 -31 96 -88
177 -125 63 -30 78 -31 78 -7 0 12 -28 34 -85 66 -81 48 -102 67 -89 87 11 19
128 71 202 90 96 24 168 24 240 -1 53 -19 58 -19 70 -3 6 9 12 26 12 38 0 26
31 56 90 85 39 20 54 22 135 16 49 -3 114 -9 143 -12 44 -6 52 -4 52 9 0 37
-141 77 -270 77 -66 0 -82 -4 -129 -32z"/>
<path d="M12820 9016 c-80 -29 -184 -80 -228 -113 -18 -13 -54 -50 -81 -82
-54 -66 -68 -117 -51 -182 11 -41 34 -54 81 -47 22 3 24 8 24 63 0 55 4 66 43
123 46 65 125 123 143 105 5 -5 3 -32 -7 -68 -40 -156 -23 -257 50 -292 34
-16 37 -16 57 3 22 20 22 37 -1 159 -18 96 12 215 71 283 16 18 29 42 29 52 0
27 -46 26 -130 -4z"/>
<path d="M12021 8864 c-40 -33 -39 -57 4 -91 38 -31 291 -151 337 -160 33 -6
68 18 68 49 0 25 -68 89 -137 127 -32 17 -65 35 -73 40 -22 12 -149 61 -159
61 -5 0 -23 -12 -40 -26z"/>
<path d="M10377 8783 c-9 -8 -9 -43 -1 -43 8 0 33 32 34 43 0 9 -24 9 -33 0z"/>
<path d="M9823 8741 c-25 -11 -48 -31 -55 -46 -23 -51 50 -149 97 -131 14 5
13 10 -7 45 -42 74 6 90 179 60 113 -19 163 -19 163 1 0 18 -45 38 -130 59
-132 32 -197 36 -247 12z"/>
<path d="M10513 8729 c-48 -18 -103 -67 -103 -90 0 -24 34 -19 77 11 51 37
112 48 165 31 60 -20 89 7 48 44 -31 28 -122 30 -187 4z"/>
<path d="M15760 8666 c0 -7 22 -42 50 -77 32 -42 50 -74 50 -92 0 -35 18 -70
31 -62 40 26 -60 242 -113 244 -10 1 -18 -5 -18 -13z"/>
<path d="M15950 8662 c0 -4 17 -30 38 -58 20 -27 45 -61 54 -74 l17 -25 0 33
c1 41 -20 84 -55 111 -27 21 -54 28 -54 13z"/>
<path d="M6253 8635 c-91 -25 -193 -84 -271 -159 -80 -76 -94 -136 -41 -180
31 -26 89 -36 89 -15 0 6 -9 22 -20 36 -11 14 -20 33 -20 43 0 54 135 165 262
216 35 14 70 32 78 40 13 13 13 16 0 24 -18 12 -13 12 -77 -5z"/>
<path d="M11889 8606 c-31 -18 -59 -58 -59 -85 0 -10 9 -29 19 -42 l19 -24 35
40 35 40 75 0 c69 0 82 -3 159 -44 124 -65 165 -72 139 -24 -11 21 -123 89
-200 122 -69 29 -185 38 -222 17z"/>
<path d="M11159 8589 c-39 -15 -67 -97 -39 -114 6 -3 10 -17 10 -29 0 -13 10
-38 23 -57 12 -19 29 -47 37 -62 19 -37 66 -77 91 -77 16 0 11 15 -37 106 -30
58 -54 116 -52 127 7 49 68 56 253 32 113 -15 135 -14 135 5 0 17 -81 51 -157
66 -84 16 -224 17 -264 3z"/>
<path d="M13013 8520 c-18 -11 -33 -27 -33 -35 0 -22 56 -53 120 -65 30 -6
109 -24 176 -41 134 -32 201 -36 244 -14 32 17 57 53 43 65 -4 4 -73 19 -153
34 -80 15 -191 38 -248 51 -57 14 -107 25 -110 25 -4 0 -22 -9 -39 -20z"/>
<path d="M9245 8518 c-35 -19 -75 -61 -75 -79 0 -29 31 -31 70 -4 48 33 95 46
142 39 30 -5 38 -3 38 9 0 28 -41 47 -100 47 -30 0 -64 -6 -75 -12z"/>
<path d="M18045 8463 c-34 -8 -86 -53 -117 -102 -24 -39 -28 -53 -23 -87 6
-39 4 -43 -27 -62 -42 -25 -104 -42 -192 -52 -73 -8 -114 -34 -103 -64 12 -31
91 -30 182 3 17 6 48 16 70 21 50 12 137 78 147 110 4 14 10 46 13 73 6 46 7
47 40 47 25 0 38 -6 45 -21 13 -23 18 -359 6 -395 -5 -16 0 -23 19 -32 14 -7
36 -12 49 -12 36 0 37 -9 9 -63 -58 -115 -105 -243 -109 -302 -8 -92 -11 -102
-43 -115 -38 -15 -51 -7 -51 34 l0 33 -54 -5 c-55 -4 -96 9 -96 32 0 34 -33
117 -50 126 -47 25 -122 -50 -190 -188 -65 -132 -85 -123 -100 44 -10 118 -25
147 -74 147 -48 0 -151 -87 -144 -122 5 -25 24 -23 58 6 l33 27 18 -23 c11
-14 19 -39 19 -61 0 -35 -2 -38 -32 -42 -18 -3 -40 -8 -48 -11 -10 -4 -22 4
-35 25 -13 19 -36 37 -65 47 -34 13 -47 23 -54 46 -5 17 -17 49 -27 73 -16 38
-21 42 -52 42 -24 0 -55 -14 -103 -45 -37 -25 -74 -45 -80 -45 -7 0 -28 28
-46 62 -19 36 -41 64 -51 66 -12 3 -44 -22 -94 -72 -41 -41 -84 -78 -95 -82
-26 -8 -53 24 -69 81 -6 22 -13 46 -15 53 -6 20 -41 14 -97 -17 -77 -44 -153
-55 -330 -48 -249 9 -349 23 -478 67 -121 40 -231 91 -287 133 l-32 24 87 22
c82 21 159 49 243 89 19 10 62 43 96 75 61 57 85 100 65 120 -15 15 -59 -8
-70 -36 -15 -39 -88 -94 -168 -127 -159 -66 -302 -66 -451 1 -52 22 -110 43
-131 46 -33 5 -42 0 -88 -43 -61 -58 -82 -115 -64 -174 21 -66 86 -119 123
-99 25 13 23 43 -7 87 -32 47 -31 65 1 91 49 38 122 23 150 -31 9 -18 30 -48
45 -66 18 -20 29 -44 29 -63 0 -16 7 -43 15 -59 23 -44 137 -115 240 -148 50
-16 115 -43 145 -59 30 -17 87 -38 125 -47 39 -9 151 -44 251 -76 99 -33 193
-60 207 -60 15 0 68 -13 119 -29 51 -16 122 -32 158 -35 36 -3 103 -12 150
-19 l85 -12 -1 -38 c-1 -21 -6 -43 -11 -48 -20 -20 -382 24 -482 58 -25 9 -75
24 -111 33 -36 10 -119 32 -185 49 -66 18 -217 63 -335 101 -118 38 -254 80
-301 94 -91 28 -132 58 -144 109 -7 27 -48 57 -80 57 -27 0 -55 -38 -55 -74 0
-27 -7 -39 -35 -60 -60 -46 -42 -86 38 -86 68 0 282 -44 364 -75 37 -14 122
-39 188 -56 196 -49 305 -81 305 -90 0 -11 -177 -11 -400 0 -122 6 -183 14
-235 29 -140 43 -362 102 -435 116 -41 8 -88 19 -103 25 -51 20 -83 14 -112
-20 l-26 -32 22 -23 c13 -14 40 -29 61 -34 21 -6 38 -15 38 -20 0 -11 -78 -78
-113 -96 -22 -12 -69 -15 -217 -14 -104 0 -195 2 -202 5 -7 3 -22 22 -33 42
-15 29 -32 42 -69 56 -68 25 -102 51 -131 101 -23 40 -25 52 -25 177 0 74 7
175 15 224 19 117 19 117 -7 113 -68 -10 -114 -186 -106 -403 6 -142 22 -183
100 -257 l49 -47 -25 -16 c-14 -9 -34 -32 -45 -51 -28 -47 -70 -63 -188 -70
-186 -12 -321 30 -380 119 -41 61 -53 104 -53 187 0 120 17 188 66 264 58 91
60 141 4 113 -38 -19 -105 -130 -136 -225 -25 -74 -29 -103 -29 -192 0 -86 4
-113 22 -152 40 -87 81 -136 159 -187 64 -42 84 -50 141 -57 166 -17 361 23
441 92 l42 36 288 1 287 2 87 43 c50 24 93 52 100 65 6 12 12 46 12 75 l0 54
46 -7 c25 -3 91 -22 148 -41 56 -19 176 -49 265 -65 146 -28 187 -32 417 -36
140 -3 312 0 383 5 79 7 138 7 155 2 28 -10 144 -28 377 -60 77 -11 176 -26
220 -34 44 -8 121 -19 172 -24 50 -6 113 -20 139 -31 89 -40 194 -37 194 5 0
8 -21 37 -47 64 -27 27 -56 58 -65 69 -16 19 -29 21 -118 21 l-100 0 0 29 c0
39 17 50 95 63 58 10 71 9 95 -5 15 -10 35 -17 43 -17 9 0 18 -9 22 -20 9 -29
59 -60 97 -60 70 0 116 50 64 70 -30 11 -31 19 -11 87 18 61 37 80 55 58 12
-14 11 -31 -6 -99 -6 -24 -1 -34 30 -65 20 -20 49 -51 65 -68 46 -52 85 -46
148 20 27 29 66 75 87 104 51 72 74 77 95 20 16 -42 13 -80 -9 -136 -30 -78
-10 -101 55 -61 17 11 37 31 44 46 11 26 14 27 73 20 33 -3 67 -11 73 -16 24
-20 12 -128 -24 -220 -60 -153 -95 -206 -161 -240 l-38 -19 -16 24 c-14 22
-14 26 1 52 15 27 15 31 -2 67 -23 48 -107 115 -203 163 -69 35 -75 36 -110
24 -47 -17 -72 -39 -65 -57 3 -7 21 -24 41 -36 105 -62 203 -131 217 -151 8
-12 15 -38 15 -59 0 -29 6 -41 26 -55 21 -13 30 -14 45 -4 22 13 39 7 39 -15
0 -23 38 -54 66 -54 35 0 148 109 181 174 14 27 45 100 69 162 40 102 44 120
44 199 0 47 -4 95 -10 105 -15 28 -53 32 -157 15 -53 -9 -100 -12 -103 -8 -4
4 -15 31 -24 60 -10 29 -30 66 -46 83 -46 49 -67 42 -158 -56 -71 -75 -83 -84
-101 -75 -11 6 -23 21 -26 33 -4 13 -18 33 -32 44 -26 22 -24 44 3 44 51 0
178 112 194 171 11 39 45 89 61 89 5 0 14 -11 19 -24 10 -27 99 -99 143 -115
68 -26 155 -2 214 59 34 35 57 94 93 240 15 62 33 102 65 150 24 36 51 82 60
102 l15 37 -52 45 -51 45 7 133 c9 193 -16 268 -101 304 -18 8 -34 13 -35 13
-2 -1 -12 -4 -23 -6z m-1629 -952 c-18 -20 -127 -81 -144 -81 -8 0 -8 9 -1 29
8 22 22 34 52 45 64 22 71 24 91 25 18 1 18 0 2 -18z m344 -4 c0 -29 -91 -120
-115 -115 -10 1 -23 10 -28 20 -9 13 -4 22 23 45 89 75 120 88 120 50z m268
11 c7 -7 12 -19 12 -29 0 -19 -88 -156 -119 -183 -26 -24 -38 -14 -23 19 7 14
12 40 12 56 0 39 14 65 58 112 40 41 43 42 60 25z m-1153 -18 c22 0 47 -4 55
-10 12 -7 12 -12 -4 -29 -18 -20 -19 -20 -65 -2 -25 10 -65 22 -88 26 -63 10
-55 29 10 21 28 -3 70 -6 92 -6z m140 -40 c-3 -5 -14 -10 -23 -10 -15 0 -15 2
-2 10 20 13 33 13 25 0z m833 -37 c-2 -10 -10 -18 -18 -18 -8 0 -16 8 -18 18
-2 12 3 17 18 17 15 0 20 -5 18 -17z m225 -54 c-3 -10 -9 -19 -14 -19 -11 0
-12 44 -2 53 10 11 21 -13 16 -34z m-913 11 c0 -5 -11 -10 -24 -10 -14 0 -28
5 -31 10 -4 6 7 10 24 10 17 0 31 -4 31 -10z m585 -51 c5 -31 3 -45 -9 -57
-15 -15 -16 -14 -16 9 0 14 -5 30 -12 37 -9 9 -9 18 0 37 16 34 29 25 37 -26z
m635 26 c-12 -15 -30 -12 -30 6 0 5 10 9 21 9 18 0 19 -2 9 -15z m-1012 -18
c3 -14 -1 -18 -20 -15 -12 2 -24 11 -26 21 -3 14 1 18 20 15 12 -2 24 -11 26
-21z m116 -32 c3 -8 1 -15 -4 -15 -6 0 -10 7 -10 15 0 8 2 15 4 15 2 0 6 -7
10 -15z m-64 -35 c0 -5 -4 -10 -10 -10 -5 0 -10 5 -10 10 0 6 5 10 10 10 6 0
10 -4 10 -10z m540 -24 c0 -7 -7 -19 -15 -26 -12 -10 -15 -9 -15 7 0 11 3 23
7 26 11 12 23 8 23 -7z m-530 -16 c0 -5 -4 -10 -10 -10 -5 0 -10 5 -10 10 0 6
5 10 10 10 6 0 10 -4 10 -10z m344 -85 c35 -53 13 -99 -46 -93 -28 3 -33 7
-36 32 -3 20 4 36 24 57 34 35 37 36 58 4z"/>
<path d="M15460 8450 c-154 -5 -192 -9 -225 -26 -79 -38 -41 -104 43 -74 23 8
113 15 233 19 176 5 199 8 218 25 12 11 21 29 19 40 -4 25 -18 26 -288 16z"/>
<path d="M10558 8390 c-53 -55 -61 -87 -28 -120 31 -31 49 -24 70 24 28 61 41
70 98 62 119 -17 140 -18 146 -7 10 15 -46 47 -123 71 -94 30 -108 27 -163
-30z"/>
<path d="M12883 8391 c-48 -12 -96 -44 -113 -74 -13 -24 -13 -30 0 -54 22 -39
46 -40 64 -5 34 65 167 92 282 57 54 -16 104 -20 104 -7 0 14 -31 38 -80 62
-35 18 -66 24 -135 26 -49 2 -104 0 -122 -5z"/>
<path d="M6414 8326 c-82 -41 -127 -71 -177 -118 -138 -130 -116 -206 63 -216
58 -3 80 0 95 12 20 16 20 16 1 31 -14 10 -43 15 -93 15 -56 0 -75 4 -79 15
-16 41 92 144 220 211 80 41 136 80 136 95 0 22 -63 5 -166 -45z"/>
<path d="M7128 8370 c-90 -11 -142 -36 -146 -72 -4 -31 19 -46 109 -72 97 -28
116 3 24 39 -90 34 -58 45 164 56 159 8 206 17 188 35 -19 19 -223 27 -339 14z"/>
<path d="M15710 8310 c-71 -47 -132 -64 -209 -56 -65 7 -142 34 -155 55 -10
16 -52 13 -70 -5 -9 -8 -16 -26 -16 -38 0 -68 128 -94 328 -67 130 17 228 82
192 126 -16 20 -18 20 -70 -15z"/>
<path d="M9465 8302 c-114 -63 -225 -150 -225 -177 0 -17 49 -57 64 -52 6 2
12 17 13 33 0 16 2 34 2 41 1 11 137 105 200 137 16 9 31 22 34 31 10 24 -31
18 -88 -13z"/>
<path d="M14718 8300 c-72 -48 -144 -132 -168 -198 -19 -49 -21 -73 -18 -172
3 -98 7 -122 28 -165 27 -54 69 -80 92 -57 9 9 6 23 -13 59 -22 44 -24 60 -24
183 0 124 2 139 25 185 21 43 34 54 86 80 82 40 96 53 92 84 -4 39 -43 39
-100 1z"/>
<path d="M8468 8256 c-51 -14 -51 -14 -162 -101 -82 -64 -88 -78 -62 -138 19
-44 65 -85 104 -93 42 -8 42 6 0 58 -37 47 -41 97 -11 130 24 27 124 73 191
87 29 6 88 11 131 11 85 0 127 17 103 42 -18 18 -232 22 -294 4z"/>
<path d="M14446 8210 c-109 -101 -162 -303 -120 -463 20 -79 36 -109 87 -164
46 -50 87 -74 169 -98 52 -15 59 -15 88 0 47 24 34 44 -48 79 -93 40 -158 95
-188 160 -20 43 -24 67 -24 156 0 125 19 210 59 260 38 48 54 79 47 96 -9 22
-23 17 -70 -26z"/>
<path d="M13583 8230 c-62 -13 -102 -37 -109 -67 -10 -40 8 -117 29 -121 14
-3 17 4 17 37 0 97 124 125 320 70 84 -23 90 -23 90 -5 0 18 -106 70 -170 85
-52 12 -117 12 -177 1z"/>
<path d="M4193 8192 c-72 -58 -184 -182 -204 -228 -10 -22 -21 -66 -25 -98 -7
-56 -6 -58 32 -97 42 -43 74 -50 112 -23 22 15 30 44 13 44 -20 0 -71 59 -71
83 0 52 87 194 107 174 3 -4 1 -32 -5 -64 -13 -67 -3 -134 23 -163 21 -23 67
-26 88 -5 13 13 13 20 0 57 -23 66 -13 209 20 280 18 41 22 59 14 67 -20 20
-55 11 -104 -27z"/>
<path d="M9922 8185 c-93 -49 -129 -80 -162 -138 -38 -66 -39 -110 -4 -142 31
-28 61 -32 90 -10 19 15 18 16 -8 36 -19 14 -28 30 -28 48 0 46 42 114 90 146
85 57 92 63 88 79 -2 12 -15 9 -66 -19z"/>
<path d="M5635 8184 c-121 -36 -265 -112 -292 -153 -29 -44 -32 -140 -6 -167
34 -33 101 -55 177 -57 116 -3 116 21 0 43 -83 16 -124 41 -124 78 0 67 83
134 245 195 118 45 171 88 108 86 -16 0 -64 -11 -108 -25z"/>
<path d="M11748 8200 c-32 -20 -58 -76 -58 -126 0 -58 34 -134 60 -134 16 0
17 8 13 84 l-6 84 33 17 c57 29 132 17 244 -39 53 -27 99 -46 102 -43 18 17
-74 97 -154 135 -60 27 -204 41 -234 22z"/>
<path d="M13080 8163 c-66 -34 -92 -142 -50 -210 33 -56 44 -45 40 38 -1 40 3
50 34 84 40 42 41 42 158 10 104 -29 108 7 7 58 -73 36 -143 44 -189 20z"/>
<path d="M10265 8086 c-38 -16 -102 -87 -111 -122 -16 -64 39 -110 79 -66 16
17 16 21 2 32 -25 20 -18 39 35 97 61 67 59 87 -5 59z"/>
<path d="M4876 8074 c-3 -9 -6 -24 -6 -34 0 -28 -22 -36 -171 -66 -126 -25
-316 -87 -366 -120 -31 -20 -31 -61 1 -75 20 -9 45 -2 163 46 77 31 178 67
224 80 93 27 167 51 217 71 25 11 32 20 32 42 0 41 -26 72 -59 72 -17 0 -31
-7 -35 -16z"/>
<path d="M16190 8043 c-67 -12 -165 -47 -252 -91 -93 -48 -173 -101 -164 -109
2 -2 67 27 144 66 182 91 242 111 337 111 70 0 95 10 59 24 -17 6 -84 6 -124
-1z"/>
<path d="M17905 8006 c-58 -60 -63 -87 -25 -136 88 -111 156 -127 100 -23 -21
40 -28 127 -10 138 6 3 10 19 10 36 0 42 -25 37 -75 -15z"/>
<path d="M5830 7994 c-45 -23 -96 -60 -135 -98 -52 -51 -66 -72 -80 -120 -26
-89 -9 -154 51 -193 33 -22 177 -31 199 -13 23 19 0 40 -44 40 -54 0 -109 18
-121 40 -5 10 -10 37 -10 59 0 87 45 151 159 230 48 33 93 67 100 75 25 30
-42 18 -119 -20z"/>
<path d="M12437 7970 c-63 -40 -74 -69 -47 -126 26 -53 103 -126 125 -118 25
10 17 38 -15 58 -70 41 -75 96 -12 123 62 26 135 20 255 -22 79 -27 112 -34
120 -26 16 16 -17 48 -83 81 -80 41 -155 60 -230 60 -56 0 -73 -4 -113 -30z"/>
<path d="M16473 7959 c-78 -13 -453 -195 -453 -220 0 -5 55 20 123 56 67 35
165 81 217 101 86 34 106 37 210 41 136 5 171 10 149 24 -17 11 -175 10 -246
-2z"/>
<path d="M11254 7931 c-40 -24 -74 -68 -74 -95 0 -27 50 -133 90 -191 27 -40
64 -65 77 -52 3 3 -16 43 -41 90 -64 116 -61 166 12 187 61 17 166 12 221 -10
60 -23 79 -10 37 26 -65 57 -258 84 -322 45z"/>
<path d="M13550 7940 c-74 -10 -106 -27 -121 -62 -10 -26 -10 -35 5 -63 23
-42 105 -123 131 -127 36 -6 25 27 -21 61 -58 44 -71 67 -50 90 19 21 80 41
124 41 25 0 62 21 62 35 0 2 -7 11 -16 19 -16 17 -28 18 -114 6z"/>
<path d="M10509 7909 c-24 -24 -23 -35 10 -174 13 -54 24 -142 28 -220 5 -120
4 -137 -21 -228 -15 -54 -24 -102 -21 -107 35 -56 105 110 119 280 11 127 -25
392 -60 448 -18 27 -28 28 -55 1z"/>
<path d="M6845 7905 c-38 -18 -68 -43 -89 -76 -30 -47 5 -93 86 -113 38 -9 44
9 14 39 -15 14 -26 32 -26 39 0 7 21 31 46 54 39 35 45 44 34 57 -15 18 -26
18 -65 0z"/>
<path d="M9287 7889 c-49 -26 -89 -87 -95 -147 -5 -57 13 -82 58 -82 38 0 46
15 25 46 -12 18 -15 36 -10 60 7 39 57 102 92 115 13 5 23 13 23 19 0 16 -52
11 -93 -11z"/>
<path d="M5048 7870 c-63 -11 -225 -58 -260 -76 -57 -29 -65 -90 -17 -135 34
-32 49 -35 67 -17 9 9 7 19 -9 45 -11 18 -18 37 -14 43 13 22 89 51 202 79
142 35 153 39 153 57 0 16 -43 17 -122 4z"/>
<path d="M17177 7869 c-152 -20 -557 -135 -547 -154 7 -14 28 -9 180 40 243
78 291 88 415 82 68 -3 137 -14 180 -26 38 -12 79 -21 90 -21 36 1 -20 38 -91
60 -83 25 -144 30 -227 19z"/>
<path d="M8630 7848 c-58 -30 -72 -64 -46 -113 19 -35 47 -52 66 -40 5 3 10
24 10 46 0 36 3 41 35 55 21 8 68 14 119 14 47 0 87 4 91 10 3 5 -7 17 -22 27
-20 13 -51 19 -118 21 -78 3 -96 0 -135 -20z"/>
<path d="M9391 7834 c-11 -14 -23 -46 -26 -72 -17 -133 -57 -307 -127 -545
l-40 -138 20 -46 c20 -46 20 -46 0 -90 -38 -85 1 -160 97 -188 36 -10 72 -31
105 -60 28 -25 63 -51 79 -59 40 -21 141 -150 163 -210 11 -28 33 -68 50 -89
17 -22 38 -64 48 -95 24 -78 130 -329 181 -431 34 -67 62 -103 140 -181 53
-53 116 -127 139 -163 40 -64 41 -68 26 -90 -93 -129 -108 -165 -88 -204 16
-30 89 -76 108 -69 14 5 15 17 10 79 l-7 72 38 36 c21 19 55 48 76 63 52 38
50 69 -9 138 -25 29 -57 73 -71 98 -35 61 -56 83 -130 137 -63 46 -128 127
-116 146 3 6 59 8 142 6 132 -4 136 -3 139 17 4 26 -8 29 -178 44 -63 6 -123
13 -132 16 -25 8 -149 276 -135 290 4 4 44 2 89 -4 122 -17 303 11 296 46 -3
15 -18 17 -143 14 -129 -3 -237 9 -273 32 -22 13 -85 254 -73 275 4 6 68 14
142 19 127 9 179 21 179 42 0 6 -73 11 -172 12 l-172 3 -9 38 c-10 42 -25 52
-62 43 -32 -8 -53 -76 -36 -120 6 -16 9 -32 6 -34 -11 -12 -35 24 -50 73 -20
70 -36 85 -80 78 -34 -5 -35 -4 -55 43 -24 55 -43 74 -77 74 -13 0 -42 9 -64
21 -44 22 -44 18 -17 108 12 42 12 44 -15 65 -15 12 -27 29 -27 37 0 8 20 70
44 138 25 67 54 168 66 225 21 107 49 302 50 347 0 37 -25 44 -49 13z"/>
<path d="M10818 7759 c-55 -59 -63 -95 -23 -105 14 -3 25 -12 25 -20 0 -27
-69 -223 -141 -404 -67 -167 -74 -192 -74 -253 0 -59 3 -71 23 -87 45 -37 68
-130 107 -445 26 -211 70 -485 104 -648 20 -95 44 -155 83 -207 15 -20 21 -55
29 -156 11 -131 8 -155 -30 -299 -6 -22 -11 -77 -11 -122 l0 -82 -72 -52 c-83
-58 -266 -153 -348 -180 -31 -10 -86 -21 -123 -25 l-67 -7 0 32 c0 19 -6 34
-15 37 -8 4 -60 -2 -114 -11 -85 -15 -113 -16 -188 -6 -49 6 -116 11 -149 11
-33 0 -68 6 -77 13 -9 6 -44 67 -77 134 -32 68 -75 148 -95 178 -37 59 -41 75
-25 106 16 28 -4 57 -53 80 -62 28 -93 25 -112 -11 -8 -16 -15 -39 -15 -51 0
-23 52 -123 136 -259 109 -178 117 -215 42 -204 -79 13 -161 39 -169 54 -49
97 -94 305 -85 393 3 34 1 67 -4 78 -22 40 27 82 116 98 52 10 112 -2 121 -24
4 -12 10 -12 36 1 18 9 40 23 49 31 9 9 45 17 80 20 59 5 66 3 113 -28 33 -23
57 -50 74 -82 l24 -48 -21 -45 c-26 -53 -27 -72 -4 -100 43 -55 171 -75 212
-34 11 11 20 25 20 30 0 20 -39 49 -75 56 -46 8 -55 26 -48 100 7 81 -28 164
-98 228 -27 25 -49 50 -49 55 0 5 26 25 58 45 78 47 94 67 90 108 -4 45 -33
48 -82 9 -34 -27 -57 -37 -154 -69 -46 -15 -38 5 17 42 83 56 95 148 19 154
-43 4 -172 -44 -238 -88 -29 -19 -58 -30 -81 -30 -52 0 -156 -56 -215 -115
-60 -60 -88 -129 -87 -220 1 -52 -3 -65 -29 -98 -30 -39 -31 -67 -3 -67 9 0
29 -7 45 -15 l30 -16 0 -98 0 -99 -64 -59 c-35 -32 -71 -72 -80 -90 -25 -50
-154 -151 -261 -205 -60 -31 -222 -85 -291 -98 -27 -5 -141 -28 -254 -51 -202
-41 -417 -64 -488 -52 -23 4 -39 0 -52 -12 -18 -16 -34 -17 -153 -11 -74 4
-152 12 -173 16 -66 16 -220 12 -238 -5 -16 -16 -46 -20 -46 -6 0 5 10 15 23
24 22 15 21 15 -18 22 -22 4 -51 14 -65 23 -13 8 -72 28 -130 43 -58 16 -125
35 -150 43 -25 8 -63 20 -85 25 -46 12 -152 74 -306 178 -112 75 -147 110
-181 177 -24 48 -56 86 -74 86 -7 0 -24 -14 -38 -31 l-26 -31 37 -70 c49 -94
108 -157 195 -209 40 -24 105 -64 143 -90 92 -61 133 -81 235 -114 47 -15 141
-48 210 -73 118 -42 148 -52 212 -66 26 -6 26 -7 21 -68 -8 -93 -72 -407 -93
-455 -24 -54 -51 -70 -134 -76 -73 -5 -110 -24 -135 -69 -13 -23 -13 -29 2
-52 22 -33 56 -34 86 -2 18 19 30 23 56 19 61 -10 142 60 210 182 l37 65 36
-29 c21 -16 62 -55 92 -86 92 -95 184 -126 295 -99 85 19 105 18 105 -6 0 -39
-43 -105 -113 -174 -95 -94 -115 -136 -65 -136 37 0 117 70 170 147 69 103 94
162 118 278 11 55 29 120 39 145 10 25 33 113 51 195 19 83 40 158 48 167 28
33 97 51 170 45 46 -4 80 -1 107 9 42 16 163 45 280 69 114 23 379 114 436
150 93 58 158 117 214 197 31 43 61 89 67 103 18 41 43 31 68 -26 12 -29 24
-67 27 -85 3 -19 20 -49 37 -68 l31 -35 150 -10 c83 -6 204 -13 270 -16 66 -4
169 -13 229 -21 111 -15 275 -7 356 16 19 6 73 17 120 25 137 24 278 83 354
148 36 30 90 70 120 89 51 30 55 36 56 69 0 20 3 58 7 84 5 42 10 49 39 61 18
8 47 14 63 14 47 0 82 17 74 36 -5 14 -17 16 -90 10 l-83 -7 0 25 c0 51 21
183 36 223 l15 41 77 7 c107 9 132 14 132 30 0 20 -52 27 -143 20 -97 -8 -101
-5 -111 75 -11 87 -1 95 127 95 58 0 109 3 113 8 4 4 0 15 -10 25 -14 14 -37
17 -141 17 -69 0 -128 4 -134 10 -5 6 -21 32 -35 58 l-26 48 23 8 c31 12 158
31 206 31 45 0 82 26 59 42 -7 5 -63 6 -124 2 -61 -3 -121 -3 -132 0 -27 9
-52 80 -34 98 15 15 92 27 189 27 86 1 111 13 77 38 -15 11 -50 14 -159 11
-118 -2 -140 -1 -140 12 0 9 16 17 42 23 34 6 57 22 116 83 66 66 78 74 111
74 48 0 173 32 256 66 227 91 360 203 360 301 0 42 -26 73 -60 73 -37 0 -85
-53 -75 -84 18 -55 12 -67 -55 -108 -36 -22 -110 -59 -165 -81 -84 -35 -111
-41 -170 -41 -38 0 -88 4 -110 8 -34 6 -46 3 -85 -22 -46 -29 -63 -54 -75
-106 -8 -36 -66 -96 -94 -96 -24 0 -25 4 -46 220 -40 396 -80 587 -137 647
-27 28 -24 37 77 289 125 311 160 504 91 504 -5 0 -32 -23 -58 -51z m-1168
-2118 c0 -5 -7 -25 -15 -44 -8 -20 -15 -61 -15 -91 0 -46 -4 -57 -21 -66 -28
-15 -69 11 -69 44 0 54 15 91 52 128 35 35 68 50 68 29z m-185 -113 c-11 -72
-13 -75 -93 -108 -117 -48 -112 -48 -112 -7 0 26 9 46 30 71 34 39 121 86 158
86 22 0 23 -3 17 -42z m-2780 -1038 c3 -5 -1 -10 -9 -10 -9 0 -16 5 -16 10 0
6 4 10 9 10 6 0 13 -4 16 -10z m146 -35 c0 -13 -41 -19 -41 -7 0 11 20 22 33
18 5 -1 8 -6 8 -11z m1226 -111 c-3 -3 -12 -4 -19 -1 -8 3 -5 6 6 6 11 1 17
-2 13 -5z m-242 -86 c11 -10 -105 -516 -125 -548 -7 -12 -32 -15 -122 -15
-129 1 -175 13 -227 60 -20 18 -65 53 -101 77 -81 55 -88 74 -67 170 8 40 23
114 32 163 9 50 19 94 22 99 6 9 579 3 588 -6z m-660 -108 c3 -5 1 -10 -4 -10
-6 0 -11 5 -11 10 0 6 2 10 4 10 3 0 8 -4 11 -10z"/>
<path d="M7302 4218 c-39 -39 32 -151 131 -205 40 -23 247 -25 286 -4 35 20
16 26 -128 45 -152 19 -175 32 -219 114 -33 62 -48 72 -70 50z"/>
<path d="M12001 7801 c-39 -10 -52 -26 -49 -61 3 -29 8 -29 176 -9 108 14 123
25 78 54 -29 19 -154 28 -205 16z"/>
<path d="M7650 7764 c-46 -14 -98 -34 -115 -44 -81 -50 -100 -109 -53 -157 37
-36 58 -25 56 28 -1 37 3 46 31 69 44 37 111 57 238 71 105 11 143 25 129 48
-14 22 -193 12 -286 -15z"/>
<path d="M3214 7741 c-35 -21 -120 -129 -141 -179 -33 -78 10 -158 70 -131 32
15 33 27 7 71 -19 33 -19 35 -1 68 19 36 46 59 56 48 4 -4 9 -26 12 -50 7 -67
22 -95 58 -112 36 -17 73 -10 107 21 10 9 68 22 145 34 181 27 247 52 331 124
53 46 55 78 4 83 -26 3 -48 -6 -95 -37 -74 -50 -145 -73 -317 -102 -111 -18
-133 -20 -141 -8 -5 8 -9 46 -9 86 0 63 -3 74 -22 87 -28 20 -27 20 -64 -3z"/>
<path d="M6220 7708 c-72 -47 -162 -152 -186 -215 -14 -36 -15 -47 -4 -74 20
-48 102 -75 151 -49 26 15 24 30 -5 30 -36 0 -72 16 -80 35 -3 9 0 29 8 43 8
15 22 44 32 64 11 27 43 57 104 104 85 63 106 85 93 98 -16 15 -56 3 -113 -36z"/>
<path d="M9908 7655 c-71 -52 -100 -102 -99 -170 1 -78 33 -135 78 -135 28 0
31 29 8 83 -31 75 -20 119 52 200 58 65 37 77 -39 22z"/>
<path d="M4095 7639 c-118 -21 -190 -51 -254 -105 -52 -45 -56 -68 -21 -107
24 -27 32 -30 47 -21 10 7 19 24 20 43 1 18 7 38 13 47 23 26 134 72 240 98
119 30 150 41 150 56 0 15 -69 11 -195 -11z"/>
<path d="M5397 7611 c-19 -22 -40 -48 -46 -59 -18 -33 -90 -268 -100 -325 -5
-28 -21 -119 -36 -202 -14 -82 -30 -192 -34 -243 -5 -51 -10 -94 -13 -97 -2
-3 -39 -10 -81 -15 -98 -14 -137 -31 -193 -82 -45 -41 -52 -65 -35 -110 26
-67 162 -146 186 -107 4 5 -20 37 -54 69 -34 32 -61 67 -61 77 0 11 10 29 23
41 35 33 133 74 169 70 l33 -3 17 -109 c9 -60 29 -143 43 -184 15 -41 35 -129
46 -196 46 -288 68 -423 77 -451 12 -41 43 -44 72 -8 21 27 22 34 16 143 -3
63 -15 158 -27 210 -11 52 -26 141 -34 196 -15 105 -35 170 -67 215 -31 41
-41 154 -29 303 18 210 28 256 67 292 19 17 34 38 34 47 0 23 -9 21 -37 -4
-19 -19 -23 -20 -29 -6 -12 33 47 273 86 347 17 31 80 208 80 224 0 20 -43 0
-73 -33z m-115 -463 c-7 -7 -12 -8 -12 -2 0 14 12 26 19 19 2 -3 -1 -11 -7
-17z m-23 -707 c9 -6 10 -11 2 -15 -13 -8 -31 1 -31 15 0 11 11 11 29 0z"/>
<path d="M9543 7558 c-37 -40 -89 -131 -98 -175 -7 -35 14 -87 40 -97 32 -12
92 -6 106 10 11 14 10 19 -11 35 -47 35 -50 40 -50 63 0 13 18 59 40 102 22
43 40 82 40 87 0 18 -39 4 -67 -25z"/>
<path d="M12635 7506 c-53 -55 -85 -99 -119 -166 -25 -50 -46 -99 -46 -109 0
-10 -7 -36 -16 -57 -40 -97 29 -278 127 -333 27 -15 45 -35 55 -60 8 -20 24
-43 36 -50 37 -23 236 -36 350 -24 87 10 105 15 137 41 20 16 44 43 54 60 16
27 17 35 5 59 -19 40 -49 40 -94 1 -33 -29 -46 -33 -113 -39 -84 -7 -209 4
-256 22 -28 12 -57 36 -146 122 -74 72 -84 169 -33 307 32 85 64 133 136 202
66 62 73 91 25 96 -24 3 -40 -8 -102 -72z"/>
<path d="M11974 7506 c-96 -72 -171 -196 -220 -366 -22 -78 -26 -107 -22 -184
4 -103 22 -144 96 -223 32 -36 45 -43 75 -43 39 0 46 -10 22 -30 -22 -18 -19
-28 18 -51 29 -18 42 -20 132 -14 105 7 335 54 384 79 36 19 55 63 42 98 -14
38 -30 43 -59 19 -71 -57 -220 -88 -376 -79 -53 4 -88 2 -95 -5 -8 -8 -10 5
-8 43 2 54 2 54 -37 75 -72 37 -81 60 -80 193 0 106 3 122 27 170 18 35 25 62
21 78 -9 33 35 104 85 137 52 34 93 90 89 119 -5 36 -31 32 -94 -16z"/>
<path d="M4530 7511 c-91 -31 -182 -72 -269 -121 -50 -28 -61 -30 -158 -30
-103 0 -104 0 -192 -45 -49 -24 -92 -49 -95 -54 -3 -5 1 -14 9 -21 18 -15 56
-6 150 34 42 17 83 26 135 28 l75 3 3 -27 c2 -17 16 -37 35 -52 37 -27 166
-76 203 -76 41 0 28 29 -23 51 -27 11 -65 27 -86 36 -21 9 -42 24 -48 34 -21
39 108 125 279 186 107 38 137 57 112 73 -23 14 -37 12 -130 -19z"/>
<path d="M5125 7526 c-67 -21 -184 -87 -210 -118 -14 -16 -28 -41 -31 -55 -10
-37 12 -98 50 -138 57 -61 97 -38 52 30 -39 58 -35 97 17 148 23 23 60 50 82
59 22 9 62 26 88 37 81 34 40 65 -48 37z"/>
<path d="M13605 7530 c-3 -5 1 -10 9 -10 8 0 18 5 21 10 3 6 -1 10 -9 10 -8 0
-18 -4 -21 -10z"/>
<path d="M6715 7475 c-109 -58 -188 -150 -201 -230 -7 -51 4 -76 48 -103 62
-37 183 -39 176 -3 -2 10 -18 18 -49 22 -138 20 -128 104 28 247 45 41 80 79
77 84 -9 14 -29 9 -79 -17z"/>
<path d="M5611 7419 c-19 -11 -60 -47 -92 -78 -46 -46 -61 -70 -74 -115 -20
-69 -13 -107 27 -141 35 -29 62 -38 109 -33 52 5 51 34 -1 49 -53 16 -84 53
-76 92 9 43 69 127 126 175 74 63 60 100 -19 51z"/>
<path d="M10263 7410 c-33 -20 -73 -85 -73 -118 0 -11 7 -25 15 -32 26 -22 47
-7 66 47 10 29 25 63 33 75 34 48 13 62 -41 28z"/>
<path d="M2346 7357 c-27 -28 -49 -65 -64 -107 -28 -81 -28 -116 -2 -130 25
-14 51 -1 80 40 l22 30 30 -25 c38 -32 73 -41 104 -26 14 6 41 11 61 11 23 0
53 11 83 30 36 23 72 34 162 49 149 25 190 36 222 62 29 23 34 56 11 66 -9 3
-42 -2 -73 -11 -32 -9 -117 -25 -191 -36 -149 -23 -176 -34 -219 -86 -23 -28
-35 -34 -51 -29 -31 10 -61 59 -70 115 -8 48 -33 90 -54 90 -6 0 -29 -19 -51
-43z m34 -132 c0 -8 -4 -15 -10 -15 -5 0 -10 7 -10 15 0 8 5 15 10 15 6 0 10
-7 10 -15z"/>
<path d="M3425 7365 c-5 -1 -44 -11 -85 -20 -159 -36 -310 -132 -310 -196 0
-45 85 -98 113 -70 8 8 4 17 -13 36 l-24 25 21 27 c26 35 143 95 253 129 120
38 132 43 128 57 -4 11 -61 20 -83 12z"/>
<path d="M11075 7288 c-55 -62 -129 -210 -145 -293 -7 -33 -15 -66 -19 -73 -8
-14 28 -193 55 -273 18 -57 72 -135 111 -160 22 -15 47 -19 111 -19 98 0 122
10 122 49 0 24 -6 31 -31 40 -18 6 -52 11 -77 11 -39 0 -50 5 -87 43 -71 71
-113 225 -102 378 6 90 26 134 98 216 51 57 82 111 73 125 -3 5 -18 8 -34 8
-21 0 -39 -12 -75 -52z"/>
<path d="M8076 7307 c-33 -49 -48 -116 -56 -242 -4 -71 -16 -177 -26 -235 -13
-79 -18 -163 -18 -340 -1 -216 1 -238 18 -267 24 -40 45 -49 65 -28 13 13 13
20 -4 67 -42 118 -17 483 61 895 14 73 23 141 19 153 -8 27 -41 26 -59 -3z"/>
<path d="M7171 7286 c-23 -25 -97 -187 -137 -301 -44 -125 -105 -348 -119
-435 -7 -47 -21 -123 -31 -170 -12 -61 -17 -139 -18 -275 -1 -189 -1 -190 28
-255 17 -38 31 -89 33 -123 5 -66 21 -81 55 -51 18 17 20 27 15 81 -4 39 -19
90 -39 135 -32 72 -33 76 -32 208 1 88 9 180 23 265 21 123 32 175 82 383 29
117 123 381 166 464 35 65 38 98 10 98 -7 0 -23 -11 -36 -24z"/>
<path d="M17608 7293 c-25 -16 -43 -41 -35 -49 2 -2 19 12 37 31 38 39 37 42
-2 18z"/>
<path d="M8974 7282 c-41 -27 -65 -175 -71 -438 -6 -233 2 -301 58 -467 59
-177 134 -300 199 -327 23 -10 29 -17 24 -29 -15 -33 -6 -72 30 -126 38 -58
86 -95 123 -95 30 0 55 27 47 53 -7 22 -164 207 -176 207 -5 0 -8 9 -8 20 0
11 -17 46 -39 78 -82 121 -144 282 -167 432 -28 188 -13 568 26 640 19 36 -14
74 -46 52z"/>
<path d="M6010 7239 c-50 -30 -106 -86 -142 -142 -27 -42 -30 -54 -26 -102 7
-85 63 -145 158 -166 41 -9 80 -2 80 15 0 7 -27 24 -61 40 -75 34 -102 72 -93
131 10 64 30 102 84 159 27 29 50 60 50 69 0 22 -8 21 -50 -4z"/>
<path d="M3388 7104 c-66 -15 -165 -63 -190 -90 -26 -29 -37 -67 -27 -87 16
-27 37 -20 92 32 59 55 84 69 179 100 72 24 89 38 67 52 -19 12 -53 10 -121
-7z"/>
<path d="M2740 7073 c-8 -3 -75 -27 -149 -54 -168 -60 -232 -114 -189 -157 21
-21 45 -13 73 24 29 38 119 85 237 124 63 21 102 46 92 61 -6 10 -40 11 -64 2z"/>
<path d="M4953 7056 c-203 -66 -260 -165 -143 -251 39 -29 53 -31 69 -11 10
12 6 20 -18 42 -40 35 -39 62 2 102 45 44 114 72 220 89 106 17 117 21 92 40
-30 21 -140 15 -222 -11z"/>
<path d="M2215 7042 c-33 -16 -85 -37 -115 -47 -72 -23 -118 -47 -197 -101
-69 -47 -84 -49 -133 -15 -15 11 -29 35 -35 62 -12 50 -32 58 -90 39 -44 -14
-73 -55 -84 -117 -8 -37 -6 -53 5 -70 18 -29 31 -29 75 1 35 24 37 24 85 9 27
-9 62 -22 77 -30 38 -20 67 -11 160 48 77 50 193 109 212 109 6 0 44 14 85 31
102 41 148 86 104 103 -34 13 -92 5 -149 -22z"/>
<path d="M9644 7062 c-24 -17 -44 -59 -44 -93 0 -49 56 -102 103 -97 45 4 46
31 3 69 -40 34 -44 53 -20 87 8 12 12 27 9 32 -7 12 -35 13 -51 2z"/>
<path d="M3931 6999 c-51 -52 -59 -88 -31 -134 34 -56 103 -101 135 -89 25 10
17 31 -25 64 -22 17 -40 40 -40 51 0 10 12 41 27 67 47 85 3 113 -66 41z"/>
<path d="M2944 6945 c-93 -20 -169 -65 -194 -113 -16 -33 -16 -123 1 -158 10
-20 22 -29 39 -29 24 0 25 2 22 62 -3 51 0 68 17 92 32 45 107 89 173 102 60
12 84 33 57 50 -18 11 -41 10 -115 -6z"/>
<path d="M5573 6914 c-54 -57 -113 -194 -113 -260 0 -31 44 -81 93 -106 74
-37 217 -34 217 6 0 16 -30 26 -78 26 -37 0 -98 23 -124 47 -38 34 -11 164 52
252 34 47 36 56 14 65 -24 9 -24 9 -61 -30z"/>
<path d="M6423 6900 c-105 -64 -111 -215 -10 -263 39 -19 128 -23 158 -6 29
15 15 26 -44 34 -67 9 -92 26 -107 71 -12 34 -10 42 20 101 38 73 32 93 -17
63z"/>
<path d="M3695 6822 c-93 -32 -134 -74 -149 -151 -11 -61 48 -98 72 -46 7 14
12 32 12 40 0 22 61 87 97 101 18 8 45 14 60 14 15 0 35 5 43 10 13 9 12 13
-9 30 -28 24 -60 25 -126 2z"/>
<path d="M1993 6739 c-118 -58 -139 -176 -37 -209 37 -13 84 -7 84 11 0 5 -16
19 -35 30 -52 31 -47 61 16 119 30 27 49 52 45 59 -10 16 -25 14 -73 -10z"/>
<path d="M1554 6681 c-33 -22 -65 -49 -71 -60 -7 -11 -27 -28 -44 -36 -17 -9
-50 -31 -74 -48 -24 -18 -70 -47 -103 -66 -124 -69 -243 -220 -246 -309 -1
-30 3 -38 20 -40 28 -4 68 30 115 99 49 73 140 167 194 201 159 101 226 148
268 187 60 56 73 77 56 97 -19 23 -54 16 -115 -25z"/>
<path d="M4355 6685 c-72 -29 -125 -82 -125 -124 0 -34 39 -85 81 -107 51 -26
67 5 24 46 -29 27 -31 40 -10 79 16 32 78 66 140 77 51 9 97 32 90 44 -12 20
-138 11 -200 -15z"/>
<path d="M2455 6676 c-73 -23 -142 -77 -188 -146 -22 -32 -21 -47 2 -60 29
-15 44 -5 95 60 35 45 62 66 113 92 70 34 88 61 43 65 -14 1 -43 -4 -65 -11z"/>
<path d="M6044 6614 c-37 -18 -79 -68 -123 -145 -26 -47 -31 -66 -31 -121 0
-57 3 -69 26 -92 41 -40 89 -51 185 -38 80 10 118 29 105 51 -5 7 -37 9 -97 4
-85 -6 -91 -5 -114 17 -14 13 -30 40 -36 59 -9 31 -7 44 16 96 15 32 44 81 66
108 21 27 39 56 39 63 0 17 2 17 -36 -2z"/>
<path d="M3075 6555 c-143 -26 -224 -82 -225 -156 0 -30 28 -59 57 -59 16 0
23 8 28 33 14 66 69 100 206 127 73 14 98 32 80 54 -16 19 -49 19 -146 1z"/>
<path d="M6692 6465 c-49 -52 -116 -154 -187 -285 -29 -52 -72 -131 -97 -175
-172 -306 -310 -627 -412 -960 -131 -429 -146 -489 -162 -650 -3 -38 -14 -83
-22 -100 -9 -16 -23 -57 -32 -90 l-17 -60 -142 2 -142 1 -103 68 -103 68 1
106 c1 85 -2 110 -17 130 -9 14 -33 47 -52 73 -19 27 -42 72 -51 102 -17 52
-17 53 6 85 29 41 43 109 24 117 -23 9 -4 24 21 17 19 -5 26 -1 34 17 19 47
61 197 61 217 0 12 4 23 10 27 34 21 99 422 72 439 -15 9 -49 -9 -61 -33 -6
-10 -15 -52 -22 -92 -13 -88 -38 -192 -84 -349 -19 -63 -42 -141 -51 -174 -13
-46 -27 -69 -64 -105 -97 -94 -92 -240 14 -358 42 -47 43 -51 50 -133 7 -100
-9 -424 -27 -525 l-12 -70 -61 1 c-34 0 -103 9 -153 19 -71 15 -96 16 -110 8
-16 -10 -24 -5 -57 28 -25 26 -47 39 -65 39 -34 0 -43 12 -57 78 -16 72 1 105
69 137 66 30 89 52 89 85 0 66 -89 82 -188 34 -83 -40 -192 -153 -234 -243
-23 -48 -39 -71 -51 -71 -24 0 -83 25 -92 40 -10 16 62 118 96 135 52 27 57
115 6 115 -71 0 -266 -147 -283 -213 -8 -36 1 -57 26 -57 26 0 25 -6 -6 -47
-42 -55 -65 -120 -71 -197 -7 -94 8 -141 53 -168 34 -20 49 -56 18 -44 -9 3
-22 6 -30 6 -23 0 -91 68 -113 114 -25 50 -19 75 36 166 57 96 34 136 -36 62
-43 -45 -107 -162 -115 -212 -8 -48 37 -134 93 -178 35 -26 51 -32 93 -32 42
0 49 -3 44 -16 -3 -9 -9 -28 -12 -42 -8 -31 -32 -62 -49 -62 -14 0 -75 -62
-75 -77 0 -6 11 -25 25 -41 14 -16 30 -47 37 -68 11 -33 19 -40 53 -48 46 -10
65 -23 190 -122 138 -109 271 -194 305 -194 32 0 80 19 80 31 0 12 -90 101
-150 148 -30 24 -121 100 -203 170 l-147 126 6 45 c9 70 33 148 70 229 47 101
46 111 -13 109 -67 -1 -76 15 -70 127 4 91 26 165 48 165 8 0 10 -13 6 -42 -6
-48 13 -100 47 -123 40 -29 45 -15 11 31 -38 50 -48 101 -17 89 9 -3 37 -10
62 -15 25 -5 71 -14 103 -20 31 -6 57 -14 57 -16 0 -3 -22 -34 -50 -70 -49
-63 -50 -67 -50 -132 0 -70 22 -135 53 -161 23 -19 65 -6 79 24 9 21 7 34 -12
75 -19 40 -22 59 -17 106 7 71 26 92 116 127 107 42 120 39 164 -36 34 -59 37
-70 38 -148 2 -139 -3 -134 166 -199 68 -26 86 -29 104 -20 17 10 20 18 16 45
-11 64 -74 125 -130 125 -39 0 -46 18 -39 100 l7 75 40 -1 c82 -3 198 -23 212
-37 12 -11 12 -29 2 -108 -6 -52 -18 -106 -25 -121 -19 -37 -17 -56 5 -63 38
-12 91 49 91 104 0 12 6 37 14 56 l15 34 58 -26 c54 -25 69 -27 235 -31 l178
-4 -6 -41 c-6 -38 -29 -106 -65 -194 -15 -36 -1 -63 31 -63 24 0 78 74 91 125
6 22 20 66 30 98 30 88 35 145 15 153 -20 8 -21 34 -1 34 13 0 16 10 28 95 24
167 64 392 96 535 22 96 49 231 61 300 16 93 52 216 141 483 65 197 124 367
129 378 22 39 33 21 26 -43 -9 -86 8 -207 38 -271 33 -67 218 -299 287 -358
74 -62 97 -77 156 -94 27 -8 67 -27 88 -41 43 -29 171 -78 226 -87 20 -3 42
-1 50 4 24 17 -45 65 -211 147 -162 79 -220 122 -348 252 -35 36 -71 79 -79
95 -9 17 -29 45 -44 63 -60 68 -79 161 -82 397 -2 175 -1 180 75 345 38 83
254 486 326 609 43 74 52 95 41 102 -21 13 -24 12 -67 -36z m-1324 -2321 c75
-46 109 -53 250 -54 72 0 132 -2 132 -5 0 -2 -11 -73 -24 -157 -14 -84 -30
-211 -36 -283 -15 -166 -12 -157 -52 -141 -18 8 -83 19 -144 25 -125 13 -206
31 -265 62 -34 17 -40 24 -35 42 4 12 16 76 27 142 31 195 24 179 73 169 65
-12 243 -11 257 3 25 25 -3 33 -115 33 -62 0 -128 5 -146 11 l-33 12 6 88 c7
106 11 116 40 95 12 -9 42 -28 65 -42z m-761 -43 c-60 -67 -70 -95 -63 -178
l6 -73 -61 -31 c-34 -16 -63 -28 -66 -25 -3 3 -8 36 -11 74 -6 87 12 124 101
210 52 50 72 62 97 62 l32 0 -35 -39z m553 -541 c0 -5 -4 -10 -10 -10 -5 0
-10 5 -10 10 0 6 5 10 10 10 6 0 10 -4 10 -10z"/>
<path d="M1654 6452 c-139 -77 -152 -109 -84 -205 43 -59 72 -76 95 -57 20 17
19 23 -15 77 -43 67 -40 85 24 133 53 40 71 62 59 74 -11 11 -27 6 -79 -22z"/>
<path d="M3989 6316 c-74 -51 -89 -110 -40 -163 53 -58 181 -107 181 -69 0 8
-29 32 -65 55 -81 50 -85 73 -22 125 35 30 40 38 31 53 -16 27 -45 26 -85 -1z"/>
<path d="M5635 6322 c-41 -26 -125 -153 -152 -232 -22 -64 -28 -143 -14 -205
5 -24 14 -33 46 -43 45 -15 62 -13 179 23 92 28 127 48 111 64 -7 7 -34 4 -85
-9 -93 -24 -163 -26 -181 -4 -39 47 14 214 102 323 68 85 65 126 -6 83z"/>
<path d="M6390 6311 c-12 -24 2 -61 24 -61 21 0 38 26 34 52 -4 31 -43 37 -58
9z"/>
<path d="M11574 6304 c-15 -22 -16 -48 -11 -217 3 -106 13 -232 22 -282 9 -49
14 -104 12 -121 -3 -18 -2 -36 3 -40 5 -5 16 -61 24 -124 9 -63 20 -143 26
-176 14 -84 13 -149 -4 -187 -21 -50 -90 -104 -202 -157 -56 -26 -119 -64
-140 -83 -59 -52 -79 -60 -139 -52 -50 6 -55 4 -89 -25 -61 -54 -46 -85 45
-96 86 -10 154 9 224 62 33 25 101 65 150 90 64 31 117 67 184 127 l95 83 -3
109 c-2 92 -6 114 -23 138 -17 24 -22 47 -24 121 -1 50 -16 187 -33 304 -17
117 -33 265 -36 330 -10 206 -13 222 -40 222 -15 0 -31 -10 -41 -26z"/>
<path d="M3525 6290 c-93 -19 -145 -55 -145 -100 0 -56 66 -82 76 -30 4 16 11
34 18 38 16 13 106 42 131 42 11 0 31 7 44 17 23 15 23 17 6 30 -20 14 -67 15
-130 3z"/>
<path d="M1352 6161 c-57 -32 -115 -79 -147 -120 -23 -29 -38 -147 -25 -201 4
-19 11 -47 14 -62 5 -21 12 -28 30 -28 22 0 23 3 29 108 8 150 31 192 144 266
87 57 48 88 -45 37z"/>
<path d="M1916 6139 c-108 -44 -174 -108 -183 -179 -7 -47 13 -82 58 -106 44
-22 60 -5 35 37 -27 45 -14 91 39 145 25 24 70 57 101 72 31 15 57 32 58 37 2
18 -58 15 -108 -6z"/>
<path d="M929 6083 c-15 -9 -39 -42 -54 -73 -22 -46 -25 -61 -16 -78 16 -29
48 -37 71 -17 28 26 82 133 78 158 -4 28 -43 33 -79 10z"/>
<path d="M4743 6065 c-19 -19 -32 -39 -28 -45 10 -16 50 -12 97 10 24 10 73
22 111 25 45 5 67 11 67 20 0 20 -24 25 -122 25 -89 0 -90 0 -125 -35z"/>
<path d="M2536 6029 c-24 -19 -27 -27 -24 -73 3 -45 6 -51 26 -54 25 -4 62 22
62 43 0 7 9 22 20 35 18 20 19 26 6 44 -19 29 -57 31 -90 5z"/>
<path d="M6043 6005 c-81 -49 -119 -130 -102 -221 18 -93 61 -134 144 -134 67
0 73 36 10 59 -19 6 -45 26 -57 44 -44 62 -22 198 37 225 24 11 33 36 17 46
-5 3 -26 -6 -49 -19z"/>
<path d="M3100 6006 c-91 -20 -149 -57 -177 -109 -13 -26 -13 -31 3 -48 25
-28 41 -24 88 24 52 54 137 85 254 94 77 6 83 8 80 27 -3 19 -10 21 -98 23
-52 1 -120 -4 -150 -11z"/>
<path d="M8171 5983 c-32 -39 -35 -65 -17 -149 36 -178 172 -396 325 -519 51
-41 74 -68 86 -99 21 -54 131 -156 170 -156 15 0 57 -13 95 -30 38 -16 77 -30
87 -30 24 0 63 27 63 45 0 7 -60 44 -132 81 -155 78 -168 87 -168 127 0 42
-25 76 -94 128 -175 131 -344 398 -354 562 -4 56 -7 67 -22 67 -10 0 -28 -12
-39 -27z"/>
<path d="M4359 5977 c-19 -10 -25 -22 -27 -54 l-3 -41 -107 -27 c-139 -36
-293 -43 -452 -21 -158 22 -182 21 -219 -9 -16 -14 -33 -34 -36 -44 -3 -10
-17 -23 -31 -30 -48 -21 -225 -34 -400 -28 -191 6 -201 4 -213 -53 -6 -29 -17
-39 -91 -81 -95 -54 -233 -103 -335 -119 -88 -14 -117 -30 -148 -82 -14 -24
-69 -92 -122 -153 -178 -202 -218 -268 -228 -371 -4 -33 -16 -83 -28 -110 -30
-71 -34 -138 -14 -240 17 -85 74 -228 122 -306 13 -21 23 -42 23 -48 0 -40
112 -196 213 -298 70 -71 136 -118 280 -196 57 -32 83 -56 165 -154 104 -125
244 -260 356 -343 141 -104 297 -250 343 -321 80 -124 111 -202 127 -323 8
-60 25 -159 36 -220 45 -229 39 -309 -37 -537 -45 -132 -46 -137 -29 -162 24
-37 61 -35 86 6 11 18 20 42 20 53 0 10 16 65 35 122 21 59 40 139 46 189 11
102 -2 352 -25 459 -8 39 -19 113 -25 166 -12 105 -29 164 -63 212 -27 39
-307 344 -375 408 -26 25 -88 79 -138 120 -116 94 -281 246 -360 329 -22 24
-80 70 -130 103 -49 33 -115 80 -147 103 -64 50 -231 257 -260 324 -19 43 -19
47 -3 96 10 29 14 57 11 63 -13 20 -59 12 -88 -16 -24 -23 -30 -25 -38 -13
-16 24 -30 82 -30 122 0 20 -5 59 -12 87 -14 61 2 172 33 233 11 21 24 73 28
114 10 86 8 83 175 268 64 72 116 133 116 137 0 15 82 59 176 93 130 48 205
83 278 129 33 22 71 43 84 48 14 5 36 18 51 28 21 16 59 21 216 30 229 14 307
29 393 77 l67 36 67 -11 c94 -16 290 -14 389 4 86 15 204 56 285 99 47 25 57
25 109 -5 17 -9 50 -20 75 -24 25 -4 100 -25 168 -46 112 -36 133 -39 235 -39
62 0 129 5 149 10 50 14 108 70 108 104 0 31 -22 34 -85 11 -60 -21 -212 -19
-282 4 -32 11 -83 25 -113 32 -56 12 -204 61 -296 98 -42 16 -55 18 -75 8z"/>
<path d="M865 5821 c-36 -15 -52 -45 -58 -107 -4 -34 -17 -90 -30 -125 -21
-55 -28 -64 -55 -71 -36 -10 -39 -18 -51 -129 -5 -41 -20 -119 -35 -175 -30
-118 -47 -323 -36 -434 9 -90 40 -177 109 -304 50 -92 51 -97 51 -178 0 -196
80 -340 279 -501 42 -34 122 -105 179 -158 57 -54 122 -107 145 -118 24 -12
45 -32 53 -49 15 -36 83 -81 182 -122 226 -93 273 -114 337 -147 39 -20 108
-62 155 -93 153 -101 373 -220 408 -220 24 0 52 31 52 56 0 30 -31 57 -117
105 -43 23 -142 84 -219 135 -179 118 -273 168 -453 239 -80 31 -159 64 -175
72 -76 39 -279 218 -482 424 -186 189 -219 245 -239 404 -10 77 -21 118 -50
180 -102 219 -108 240 -113 372 -3 104 0 142 22 252 28 133 92 329 152 462 18
42 42 106 51 143 18 66 18 68 -1 82 -22 16 -32 16 -61 5z m-55 -1411 c0 -5 -4
-10 -9 -10 -6 0 -13 5 -16 10 -3 6 1 10 9 10 9 0 16 -4 16 -10z"/>
<path d="M2231 5716 c-26 -14 -50 -51 -51 -78 0 -26 49 -78 75 -78 32 0 42 39
15 61 -17 15 -18 18 -4 30 27 22 37 49 23 65 -14 17 -27 17 -58 0z"/>
<path d="M5673 5712 c-34 -34 -90 -108 -116 -153 -58 -102 -41 -173 52 -221
60 -32 140 -38 161 -13 17 20 5 33 -38 41 -57 10 -121 51 -139 89 -16 33 -15
35 10 74 15 22 27 43 27 46 0 3 20 30 45 61 45 55 58 94 30 94 -8 0 -23 -8
-32 -18z"/>
<path d="M1505 5633 c-42 -41 -91 -215 -79 -278 3 -19 15 -42 26 -51 29 -27
38 -4 38 104 0 83 3 99 31 153 38 76 29 117 -16 72z"/>
<path d="M1755 5620 c-19 -36 -19 -63 0 -99 30 -59 110 -103 130 -71 7 11 -3
28 -47 82 l-22 28 22 39 c12 21 22 41 22 45 0 3 -20 6 -45 6 -39 0 -46 -4 -60
-30z"/>
<path d="M1107 5568 c-24 -19 -37 -62 -37 -123 0 -48 3 -56 35 -84 34 -30 78
-41 89 -22 3 4 -7 28 -23 52 -28 42 -29 47 -19 102 14 81 -1 107 -45 75z"/>
<path d="M7106 5508 c-28 -39 -19 -104 28 -220 72 -177 118 -238 179 -238 33
0 51 -24 44 -58 -7 -33 28 -117 61 -146 12 -10 49 -33 84 -50 147 -76 270
-146 299 -170 24 -20 41 -26 79 -26 29 0 65 -8 87 -20 57 -29 267 -51 331 -34
13 4 22 14 22 25 0 11 -2 19 -5 19 -3 0 -56 9 -118 20 -62 11 -149 24 -194 29
-83 9 -123 27 -278 130 -22 15 -52 32 -66 38 -14 6 -58 32 -98 57 -73 47 -111
93 -111 134 0 47 -40 116 -90 155 -69 53 -119 135 -164 265 -41 120 -58 136
-90 90z"/>
<path d="M9090 5350 c0 -5 7 -10 15 -10 8 0 15 5 15 10 0 6 -7 10 -15 10 -8 0
-15 -4 -15 -10z"/>
<path d="M9027 5323 c-4 -3 -7 -15 -7 -25 0 -26 24 -17 28 10 3 21 -8 29 -21
15z"/>
<path d="M9080 5300 c0 -5 5 -10 10 -10 6 0 10 5 10 10 0 6 -4 10 -10 10 -5 0
-10 -4 -10 -10z"/>
<path d="M11140 5283 c-60 -6 -92 -32 -55 -47 23 -8 154 10 171 25 14 12 14
14 -3 20 -19 8 -38 8 -113 2z"/>
<path d="M9030 5250 c0 -5 7 -10 15 -10 8 0 15 5 15 10 0 6 -7 10 -15 10 -8 0
-15 -4 -15 -10z"/>
<path d="M9075 5150 c-3 -5 1 -10 9 -10 9 0 16 5 16 10 0 6 -4 10 -9 10 -6 0
-13 -4 -16 -10z"/>
<path d="M5450 5143 c-27 -10 -29 -26 -8 -56 33 -46 76 -67 138 -67 30 0 61 4
68 9 22 13 10 46 -18 49 -56 7 -101 24 -126 47 -28 26 -30 27 -54 18z"/>
<path d="M1610 5107 c-41 -32 -60 -70 -60 -119 0 -76 44 -140 86 -124 20 8 17
57 -6 86 -25 32 -25 51 0 100 31 61 21 90 -20 57z"/>
<path d="M998 5013 c-30 -34 -80 -146 -93 -210 -16 -79 -5 -126 52 -220 86
-141 121 -179 145 -155 14 14 0 47 -89 210 -56 104 -62 120 -56 156 6 45 49
159 70 191 27 41 3 64 -29 28z"/>
<path d="M1263 4969 c-20 -31 -28 -57 -31 -103 -3 -56 -1 -64 28 -98 27 -33
37 -38 75 -38 86 0 102 29 31 60 -76 32 -96 89 -56 163 25 46 25 57 0 57 -12
0 -30 -16 -47 -41z"/>
<path d="M8477 5003 c-12 -11 -8 -23 8 -23 8 0 15 7 15 15 0 16 -12 20 -23 8z"/>
<path d="M8540 4980 c0 -5 7 -10 15 -10 8 0 15 5 15 10 0 6 -7 10 -15 10 -8 0
-15 -4 -15 -10z"/>
<path d="M8674 4935 c-10 -24 6 -35 52 -35 52 0 55 8 13 33 -37 21 -58 22 -65
2z"/>
<path d="M8445 4910 c-3 -5 -1 -10 4 -10 6 0 11 5 11 10 0 6 -2 10 -4 10 -3 0
-8 -4 -11 -10z"/>
<path d="M5337 4862 c-63 -66 -4 -150 142 -206 46 -17 77 -21 178 -21 81 1
127 5 135 13 6 6 10 14 7 16 -2 3 -60 8 -128 13 -81 5 -126 12 -128 20 -5 15
41 39 127 68 42 15 66 29 68 40 5 22 -16 16 -135 -41 -51 -24 -102 -44 -114
-44 -31 0 -118 50 -124 71 -11 32 5 59 36 66 23 4 27 8 18 19 -18 22 -53 16
-82 -14z"/>
<path d="M7966 4741 c-4 -7 -5 -15 -2 -18 9 -9 19 4 14 18 -4 11 -6 11 -12 0z"/>
<path d="M1772 4377 c-9 -10 -7 -19 4 -36 19 -26 57 -25 62 2 7 38 -42 63 -66
34z"/>
<path d="M1633 4372 c-21 -13 -33 -62 -27 -103 12 -72 78 -128 128 -109 31 11
35 46 6 55 -30 9 -60 54 -60 89 0 65 -16 88 -47 68z"/>
<path d="M1250 4325 c-16 -20 4 -70 36 -92 30 -19 84 -10 110 18 18 20 18 21
-1 35 -10 8 -29 14 -42 14 -12 0 -28 9 -35 20 -15 24 -50 26 -68 5z"/>
<path d="M6545 4312 c-66 -40 -189 -201 -201 -261 -5 -22 -1 -34 14 -47 21
-17 21 -17 -18 -93 -61 -122 -83 -221 -64 -286 8 -25 121 -115 145 -115 23 0
42 34 34 60 -3 11 -26 37 -51 58 -43 39 -44 40 -44 103 0 35 6 75 13 89 7 14
21 46 30 71 33 86 99 124 191 108 61 -10 96 -55 96 -123 0 -45 -5 -59 -36 -99
-33 -42 -40 -77 -17 -77 22 0 75 44 105 87 32 46 33 52 33 140 0 106 -10 123
-95 163 -28 13 -50 27 -50 32 0 13 -57 9 -94 -6 -18 -7 -49 -28 -69 -46 -44
-38 -67 -34 -67 10 0 60 167 207 191 169 5 -8 9 -22 9 -31 0 -28 27 -21 70 18
44 40 51 68 21 84 -32 16 -113 12 -146 -8z"/>
<path d="M6273 4250 c-19 -11 -43 -41 -59 -72 -14 -29 -37 -68 -51 -86 -39
-52 -111 -212 -129 -288 -9 -38 -28 -102 -42 -142 l-25 -73 29 -31 c16 -17 54
-43 84 -57 63 -31 170 -100 170 -111 0 -12 69 -79 125 -120 30 -22 81 -67 113
-99 32 -33 69 -62 83 -66 13 -3 132 -5 264 -3 l240 3 95 47 c52 26 115 51 140
54 25 4 65 16 90 26 l45 20 -29 25 c-27 23 -36 25 -94 20 -48 -4 -82 -14 -135
-42 l-72 -38 -120 7 c-344 19 -437 40 -491 111 -44 58 -170 181 -221 216 -25
18 -78 44 -117 59 l-71 27 -3 57 c-5 101 58 295 118 361 10 11 31 48 48 81 16
34 36 72 45 85 18 25 22 49 10 49 -5 0 -22 -9 -40 -20z"/>
<path d="M6722 4180 c-13 -12 -22 -26 -20 -32 2 -6 31 -21 65 -35 33 -13 79
-39 100 -58 39 -33 40 -36 46 -116 4 -45 9 -84 11 -86 9 -9 74 18 80 33 3 9 6
57 6 107 0 82 -3 95 -27 130 -36 52 -74 70 -163 75 -67 3 -78 1 -98 -18z"/>
<path d="M1880 4101 c0 -21 13 -41 26 -41 17 0 17 5 4 31 -11 20 -30 26 -30
10z"/>
<path d="M1418 3959 c-29 -16 -24 -90 9 -130 47 -55 125 -76 156 -41 26 28 21
35 -36 57 -44 17 -56 27 -74 64 -29 57 -34 62 -55 50z"/>
<path d="M7020 3507 c0 -53 50 -141 99 -174 26 -18 48 -23 97 -23 63 0 118 16
109 31 -3 4 -31 11 -63 15 -93 11 -129 38 -175 130 -22 43 -42 64 -63 64 -2 0
-4 -19 -4 -43z"/>
<path d="M2400 3502 c0 -14 32 -39 63 -51 37 -14 34 2 -6 33 -34 26 -57 33
-57 18z"/>
<path d="M4286 3341 c-10 -11 -16 -28 -14 -38 1 -10 -4 -37 -11 -61 -12 -35
-12 -46 -1 -66 15 -29 75 -73 173 -129 174 -98 205 -106 226 -61 22 48 -39
115 -173 189 -90 50 -144 103 -148 147 -4 39 -26 47 -52 19z"/>
<path d="M5100 3286 c0 -45 78 -107 151 -120 81 -15 92 20 17 55 -28 13 -70
39 -92 56 -50 40 -76 43 -76 9z"/>
<path d="M4810 3210 c-76 -76 33 -343 151 -367 16 -3 29 -9 29 -14 0 -5 -2 -9
-5 -9 -42 0 -267 -45 -319 -64 -78 -28 -79 -29 -100 -71 -14 -26 -14 -31 1
-47 9 -10 29 -18 45 -18 33 0 172 30 298 65 47 13 121 29 165 35 86 13 197 52
267 96 83 51 198 176 198 216 0 43 -93 7 -160 -62 -26 -27 -61 -52 -76 -55
-27 -6 -73 -24 -116 -46 -10 -5 -51 -9 -91 -9 -57 0 -84 5 -124 25 -62 30 -86
62 -108 145 -15 59 -15 65 1 96 15 27 15 36 5 62 -16 39 -36 47 -61 22z"/>
<path d="M2649 2847 c-49 -33 -45 -57 14 -85 59 -28 100 -88 167 -246 71 -166
125 -377 136 -536 l6 -85 -83 81 c-166 161 -219 185 -280 124 -23 -23 -29 -35
-24 -52 11 -36 32 -54 76 -67 50 -15 178 -108 216 -157 16 -19 40 -42 55 -50
21 -11 29 -26 39 -71 7 -32 17 -64 22 -70 13 -17 67 -16 91 2 19 14 19 16 -3
128 -18 95 -20 121 -11 162 9 38 7 77 -5 175 -22 170 -49 281 -107 440 -62
168 -90 222 -150 283 -40 40 -53 47 -86 47 -24 0 -52 -9 -73 -23z"/>
<path d="M2566 1928 c-22 -31 -21 -38 19 -137 41 -105 81 -268 90 -371 3 -41
1 -117 -4 -168 -9 -80 -16 -103 -54 -175 -100 -187 -134 -231 -203 -272 -51
-30 -95 -80 -88 -100 15 -38 111 -21 147 27 12 16 36 46 53 66 36 43 122 174
134 206 4 11 24 55 43 96 53 113 71 210 64 349 -7 150 -48 346 -90 431 -28 57
-36 65 -64 68 -23 2 -35 -3 -47 -20z"/>
<path d="M3847 1858 c-20 -15 -27 -33 -107 -253 -60 -165 -185 -426 -252 -523
-46 -69 -154 -171 -202 -193 -35 -15 -56 -17 -142 -12 -114 7 -104 10 -244
-82 -171 -114 -287 -172 -435 -219 -209 -67 -221 -69 -341 -70 -137 -1 -162 9
-166 67 -2 23 -10 44 -19 50 -23 14 -102 0 -141 -26 -44 -30 -47 -61 -11 -99
32 -34 58 -48 157 -89 63 -26 83 -29 181 -29 89 0 123 5 185 24 41 14 111 34
155 46 148 39 306 115 497 238 62 40 124 54 238 56 79 2 91 5 153 39 64 36 78
50 187 188 14 17 41 62 60 99 19 38 55 104 79 147 52 92 106 219 167 393 25
69 51 139 59 157 18 37 19 57 5 84 -12 22 -39 25 -63 7z m5 -80 c-9 -9 -12 -7
-12 12 0 19 3 21 12 12 9 -9 9 -15 0 -24z"/>
</g>
</svg>
